<svg xmlns="http://www.w3.org/2000/svg" width="20" height="21" viewBox="0 0 20 21" fill="none">
  <mask id="mask0_1203_2620" style="mask-type:alpha" maskUnits="userSpaceOnUse" x="0" y="0" width="20" height="21">
    <rect y="0.780029" width="20" height="20" fill="#D9D9D9"/>
  </mask>
  <g mask="url(#mask0_1203_2620)">
    <path d="M6.04297 14.7384H11.4596V13.4884H6.04297V14.7384ZM6.04297 11.4051H13.9596V10.1551H6.04297V11.4051ZM6.04297 8.07178H13.9596V6.82178H6.04297V8.07178ZM4.42443 17.8634C4.00345 17.8634 3.64714 17.7176 3.35547 17.4259C3.0638 17.1343 2.91797 16.778 2.91797 16.357V5.20324C2.91797 4.78226 3.0638 4.42594 3.35547 4.13428C3.64714 3.84261 4.00345 3.69678 4.42443 3.69678H15.5782C15.9992 3.69678 16.3555 3.84261 16.6471 4.13428C16.9388 4.42594 17.0846 4.78226 17.0846 5.20324V16.357C17.0846 16.778 16.9388 17.1343 16.6471 17.4259C16.3555 17.7176 15.9992 17.8634 15.5782 17.8634H4.42443ZM4.42443 16.6134H15.5782C15.6423 16.6134 15.7011 16.5867 15.7544 16.5332C15.8079 16.4799 15.8346 16.4212 15.8346 16.357V5.20324C15.8346 5.13907 15.8079 5.08032 15.7544 5.02699C15.7011 4.97351 15.6423 4.94678 15.5782 4.94678H4.42443C4.36026 4.94678 4.30151 4.97351 4.24818 5.02699C4.19471 5.08032 4.16797 5.13907 4.16797 5.20324V16.357C4.16797 16.4212 4.19471 16.4799 4.24818 16.5332C4.30151 16.5867 4.36026 16.6134 4.42443 16.6134Z" fill="#393F4E"/>
  </g>
</svg>