<svg width="20" height="20" viewBox="0 0 20 20" fill="none" xmlns="http://www.w3.org/2000/svg">
<path d="M14.1667 1.66699C13.7083 1.66699 13.3333 2.04199 13.3333 2.50033V3.33366H6.66667V2.50033C6.66667 2.04199 6.29167 1.66699 5.83333 1.66699C5.375 1.66699 5 2.04199 5 2.50033V3.33366H4.16667C3.24167 3.33366 2.50833 4.08366 2.50833 5.00033L2.5 16.667C2.5 17.5837 3.24167 18.3337 4.16667 18.3337H15.8333C16.75 18.3337 17.5 17.5837 17.5 16.667V5.00033C17.5 4.08366 16.75 3.33366 15.8333 3.33366H15V2.50033C15 2.04199 14.625 1.66699 14.1667 1.66699ZM15.8333 16.667H4.16667V8.33366H15.8333V16.667ZM9.16667 10.8337C9.16667 10.3753 9.54167 10.0003 10 10.0003C10.4583 10.0003 10.8333 10.3753 10.8333 10.8337C10.8333 11.292 10.4583 11.667 10 11.667C9.54167 11.667 9.16667 11.292 9.16667 10.8337ZM5.83333 10.8337C5.83333 10.3753 6.20833 10.0003 6.66667 10.0003C7.125 10.0003 7.5 10.3753 7.5 10.8337C7.5 11.292 7.125 11.667 6.66667 11.667C6.20833 11.667 5.83333 11.292 5.83333 10.8337ZM12.5 10.8337C12.5 10.3753 12.875 10.0003 13.3333 10.0003C13.7917 10.0003 14.1667 10.3753 14.1667 10.8337C14.1667 11.292 13.7917 11.667 13.3333 11.667C12.875 11.667 12.5 11.292 12.5 10.8337ZM9.16667 14.167C9.16667 13.7087 9.54167 13.3337 10 13.3337C10.4583 13.3337 10.8333 13.7087 10.8333 14.167C10.8333 14.6253 10.4583 15.0003 10 15.0003C9.54167 15.0003 9.16667 14.6253 9.16667 14.167ZM5.83333 14.167C5.83333 13.7087 6.20833 13.3337 6.66667 13.3337C7.125 13.3337 7.5 13.7087 7.5 14.167C7.5 14.6253 7.125 15.0003 6.66667 15.0003C6.20833 15.0003 5.83333 14.6253 5.83333 14.167ZM12.5 14.167C12.5 13.7087 12.875 13.3337 13.3333 13.3337C13.7917 13.3337 14.1667 13.7087 14.1667 14.167C14.1667 14.6253 13.7917 15.0003 13.3333 15.0003C12.875 15.0003 12.5 14.6253 12.5 14.167Z" fill="#6F00B6"/>
</svg>
