<svg xmlns="http://www.w3.org/2000/svg" width="28" height="28" viewBox="0 0 28 28" fill="none">
  <rect x="0.846774" y="0.846774" width="26.3065" height="26.3065" rx="13.1532" fill="#F5F5F5"/>
  <rect x="0.846774" y="0.846774" width="26.3065" height="26.3065" rx="13.1532" stroke="#EDEDED" stroke-width="1.69355"/>
  <path d="M8.29537 8.29537C8.68919 7.90154 9.3277 7.90154 9.72153 8.29537L19.7046 18.2785C20.0985 18.6723 20.0985 19.3108 19.7046 19.7046C19.3108 20.0985 18.6723 20.0985 18.2785 19.7046L8.29537 9.72153C7.90155 9.3277 7.90155 8.68919 8.29537 8.29537Z" fill="#999999"/>
  <path d="M19.7046 8.29537C20.0985 8.68919 20.0985 9.3277 19.7046 9.72153L9.72152 19.7046C9.3277 20.0985 8.68919 20.0985 8.29537 19.7046C7.90154 19.3108 7.90154 18.6723 8.29537 18.2785L18.2785 8.29537C18.6723 7.90155 19.3108 7.90155 19.7046 8.29537Z" fill="#999999"/>
</svg>