<svg width="20" height="13" viewBox="0 0 20 13" fill="none" xmlns="http://www.w3.org/2000/svg">
<path d="M9.58301 0.5C14.3936 0.500013 17.3682 3.43771 18.7208 5.20194C19.3166 5.97906 19.3166 7.02094 18.7208 7.79806C17.3682 9.56229 14.3936 12.5 9.58301 12.5C4.77342 12.5 1.79911 9.56355 0.446084 7.79919C-0.150307 7.02149 -0.150307 5.97851 0.446084 5.20081C1.79911 3.43645 4.77342 0.5 9.58301 0.5ZM9.58301 3.07129C7.74219 3.07145 6.25 4.60655 6.25 6.5C6.25 8.39345 7.74219 9.92855 9.58301 9.92871C11.424 9.92871 12.917 8.39355 12.917 6.5C12.917 4.60645 11.424 3.07129 9.58301 3.07129Z" fill="#61666D"/>
</svg>
