<svg xmlns="http://www.w3.org/2000/svg" width="25" height="24" viewBox="0 0 25 24" fill="none">
  <rect x="0.75" y="0.25" width="23.5" height="23.5" rx="3.75" stroke="#EDEDED" stroke-width="0.5"/>
  <path d="M20.6837 12.1841C20.6837 11.6403 20.6397 11.0936 20.5456 10.5586H13V13.6391H17.321C17.1417 14.6327 16.5656 15.5116 15.7219 16.0701V18.0689H18.2998C19.8137 16.6756 20.6837 14.618 20.6837 12.1841Z" fill="#4285F4"/>
  <path d="M12.9984 20C15.1559 20 16.9754 19.2916 18.3011 18.0688L15.7232 16.07C15.006 16.5579 14.0801 16.8342 13.0013 16.8342C10.9143 16.8342 9.14474 15.4262 8.50982 13.5332H5.84961V15.5938C7.20764 18.2951 9.97366 20 12.9984 20Z" fill="#34A853"/>
  <path d="M8.50824 13.5331C8.17314 12.5396 8.17314 11.4638 8.50824 10.4702V8.40967H5.85097C4.71634 10.6701 4.71634 13.3333 5.85097 15.5937L8.50824 13.5331Z" fill="#FBBC04"/>
  <path d="M12.9984 7.16633C14.1389 7.14869 15.2412 7.57785 16.0672 8.36563L18.3511 6.08167C16.9049 4.72364 14.9854 3.97702 12.9984 4.00054C9.97366 4.00054 7.20764 5.70542 5.84961 8.40972L8.50688 10.4703C9.13886 8.57433 10.9113 7.16633 12.9984 7.16633Z" fill="#EA4335"/>
</svg>