<svg width="18" height="19" viewBox="0 0 18 19" fill="none" xmlns="http://www.w3.org/2000/svg">
<path d="M14.6115 9.95108C13.434 6.89108 9.24146 6.72608 10.254 2.27858C10.329 1.94858 9.97646 1.69358 9.69146 1.86608C6.96896 3.47108 5.01146 6.68858 6.65396 10.9036C6.78896 11.2486 6.38396 11.5711 6.09146 11.3461C4.73396 10.3186 4.59146 8.84108 4.71146 7.78358C4.75646 7.39358 4.24646 7.20608 4.02896 7.52858C3.51896 8.30858 3.00146 9.56858 3.00146 11.4661C3.28646 15.6661 6.83396 16.9561 8.10896 17.1211C9.93146 17.3536 11.904 17.0161 13.3215 15.7186C14.8815 14.2711 15.4515 11.9611 14.6115 9.95108ZM7.65146 13.7236C8.73146 13.4611 9.28646 12.6811 9.43646 11.9911C9.68396 10.9186 8.71646 9.86858 9.36896 8.17358C9.61646 9.57608 11.8215 10.4536 11.8215 11.9836C11.8815 13.8811 9.82646 15.5086 7.65146 13.7236Z" fill="#6F00B6"/>
<path d="M14.6115 9.95108C13.434 6.89108 9.24146 6.72608 10.254 2.27858C10.329 1.94858 9.97646 1.69358 9.69146 1.86608C6.96896 3.47108 5.01146 6.68858 6.65396 10.9036C6.78896 11.2486 6.38396 11.5711 6.09146 11.3461C4.73396 10.3186 4.59146 8.84108 4.71146 7.78358C4.75646 7.39358 4.24646 7.20608 4.02896 7.52858C3.51896 8.30858 3.00146 9.56858 3.00146 11.4661C3.28646 15.6661 6.83396 16.9561 8.10896 17.1211C9.93146 17.3536 11.904 17.0161 13.3215 15.7186C14.8815 14.2711 15.4515 11.9611 14.6115 9.95108ZM7.65146 13.7236C8.73146 13.4611 9.28646 12.6811 9.43646 11.9911C9.68396 10.9186 8.71646 9.86858 9.36896 8.17358C9.61646 9.57608 11.8215 10.4536 11.8215 11.9836C11.8815 13.8811 9.82646 15.5086 7.65146 13.7236Z" fill="#6F00B6"/>
</svg>
