<svg xmlns="http://www.w3.org/2000/svg" width="25" height="24" viewBox="0 0 25 24" fill="none">
  <mask id="mask0_1516_4600" style="mask-type:alpha" maskUnits="userSpaceOnUse" x="0" y="0" width="25" height="24">
    <rect x="0.5" width="24" height="24" fill="#D9D9D9"/>
  </mask>
  <g mask="url(#mask0_1516_4600)">
    <path d="M4.34668 21.0786C3.79668 21.0786 3.32585 20.8828 2.93418 20.4911C2.54251 20.0994 2.34668 19.6286 2.34668 19.0786V8.07861C2.34668 7.52861 2.54251 7.05778 2.93418 6.66611C3.32585 6.27445 3.79668 6.07861 4.34668 6.07861H8.34668V4.07861C8.34668 3.52861 8.54251 3.05778 8.93418 2.66611C9.32585 2.27445 9.79668 2.07861 10.3467 2.07861H14.3467C14.8967 2.07861 15.3675 2.27445 15.7592 2.66611C16.1508 3.05778 16.3467 3.52861 16.3467 4.07861V6.07861H20.3467C20.8967 6.07861 21.3675 6.27445 21.7592 6.66611C22.1508 7.05778 22.3467 7.52861 22.3467 8.07861V19.0786C22.3467 19.6286 22.1508 20.0994 21.7592 20.4911C21.3675 20.8828 20.8967 21.0786 20.3467 21.0786H4.34668ZM10.3467 6.07861H14.3467V4.07861H10.3467V6.07861ZM20.3467 15.0786H15.3467V17.0786H9.34668V15.0786H4.34668V19.0786H20.3467V15.0786ZM11.3467 15.0786H13.3467V13.0786H11.3467V15.0786ZM4.34668 13.0786H9.34668V11.0786H15.3467V13.0786H20.3467V8.07861H4.34668V13.0786Z" fill="#61666D"/>
  </g>
</svg>