<svg xmlns="http://www.w3.org/2000/svg" width="20" height="21" viewBox="0 0 20 21" fill="none">
  <mask id="mask0_1203_2635" style="mask-type:alpha" maskUnits="userSpaceOnUse" x="0" y="0" width="20" height="21">
    <rect y="0.780029" width="20" height="20" fill="#D9D9D9"/>
  </mask>
  <g mask="url(#mask0_1203_2635)">
    <path d="M10.0024 10.6677C10.417 10.6677 10.7714 10.52 11.0657 10.2247C11.3602 9.92946 11.5074 9.57453 11.5074 9.15995C11.5074 8.74536 11.3598 8.39085 11.0645 8.09641C10.7692 7.8021 10.4142 7.65495 9.99948 7.65495C9.5849 7.65495 9.23045 7.80259 8.93615 8.09786C8.6417 8.39314 8.49448 8.74814 8.49448 9.16286C8.49448 9.57745 8.64212 9.93189 8.9374 10.2262C9.23267 10.5205 9.58767 10.6677 10.0024 10.6677ZM10.0009 17.0412C11.6312 15.5818 12.8788 14.1819 13.7436 12.8416C14.6085 11.5013 15.0409 10.3274 15.0409 9.31995C15.0409 7.80078 14.5583 6.55189 13.593 5.57328C12.6277 4.59467 11.4304 4.10536 10.0009 4.10536C8.57149 4.10536 7.37413 4.59467 6.40885 5.57328C5.44358 6.55189 4.96094 7.80078 4.96094 9.31995C4.96094 10.3274 5.39337 11.5013 6.25823 12.8416C7.12309 14.1819 8.37066 15.5818 10.0009 17.0412ZM10.0009 18.7045C7.90372 16.8873 6.33108 15.1961 5.28302 13.631C4.23497 12.0657 3.71094 10.6287 3.71094 9.31995C3.71094 7.39689 4.33295 5.84002 5.57698 4.64932C6.82115 3.45863 8.2958 2.86328 10.0009 2.86328C11.7061 2.86328 13.1807 3.45863 14.4249 4.64932C15.6689 5.84002 16.2909 7.39689 16.2909 9.31995C16.2909 10.6287 15.7669 12.0657 14.7189 13.631C13.6708 15.1961 12.0982 16.8873 10.0009 18.7045Z" fill="#393F4E"/>
  </g>
</svg>