<svg xmlns="http://www.w3.org/2000/svg" width="36" height="36" viewBox="0 0 36 36" fill="none">
  <mask id="mask0_1525_3103" style="mask-type:alpha" maskUnits="userSpaceOnUse" x="0" y="0" width="36" height="36">
    <rect width="36" height="36" fill="#D9D9D9"/>
  </mask>
  <g mask="url(#mask0_1525_3103)">
    <path d="M8.25 32.9998C7.63125 32.9998 7.10163 32.7794 6.66113 32.3386C6.22038 31.8981 6 31.3685 6 30.7498V14.4748C6 13.856 6.22038 13.3263 6.66113 12.8855C7.10163 12.445 7.63125 12.2248 8.25 12.2248H10.875V8.62476C10.875 6.65351 11.5701 4.97326 12.9604 3.58401C14.3504 2.19451 16.0316 1.49976 18.0041 1.49976C19.9764 1.49976 21.6562 2.19451 23.0438 3.58401C24.4312 4.97326 25.125 6.65351 25.125 8.62476V12.2248H27.75C28.3687 12.2248 28.8985 12.445 29.3393 12.8855C29.7798 13.3263 30 13.856 30 14.4748V30.7498C30 31.3685 29.7798 31.8981 29.3393 32.3386C28.8985 32.7794 28.3687 32.9998 27.75 32.9998H8.25ZM8.25 30.7498H27.75V14.4748H8.25V30.7498ZM18.0064 25.4998C18.8021 25.4998 19.4813 25.2244 20.0438 24.6736C20.6063 24.1229 20.8875 23.4608 20.8875 22.6873C20.8875 21.9373 20.6041 21.256 20.0374 20.6435C19.4706 20.031 18.7894 19.7248 17.9936 19.7248C17.1979 19.7248 16.5188 20.031 15.9563 20.6435C15.3938 21.256 15.1125 21.9435 15.1125 22.706C15.1125 23.4685 15.3959 24.1248 15.9626 24.6748C16.5294 25.2248 17.2106 25.4998 18.0064 25.4998ZM13.125 12.2248H22.875V8.62476C22.875 7.27051 22.4015 6.11951 21.4545 5.17176C20.5075 4.22376 19.3575 3.74976 18.0045 3.74976C16.6515 3.74976 15.5 4.22376 14.55 5.17176C13.6 6.11951 13.125 7.27051 13.125 8.62476V12.2248Z" fill="#7A52FF"/>
  </g>
</svg>