<svg xmlns="http://www.w3.org/2000/svg" width="82" height="31" viewBox="0 0 82 31" fill="none">
  <path d="M37.3894 18.3789H53.7111L52.4887 30.777H48.6061L49.5391 21.6922H37.103L37.3894 18.3789Z" fill="#6F00B6"/>
  <path d="M55.485 0.779297L53.8227 16.4847H49.8516L51.5138 0.779297H55.485Z" fill="#6F00B6"/>
  <path d="M68.4773 4.82859H60.2427L60.5202 1.63477H68.7548L68.4773 4.82859Z" fill="#6F00B6"/>
  <path d="M70.4031 9.41307L70.6747 6.30762H57.5861L57.3145 9.41307H60.078L60.0574 9.65058C58.8822 10.3008 58.2297 11.3755 58.0998 12.8748C58.029 13.7031 58.1973 14.4572 58.6077 15.1371C59.0181 15.8169 59.6381 16.3602 60.4648 16.764C61.2915 17.1678 62.254 17.3697 63.3524 17.3697C64.4507 17.3697 65.4487 17.1678 66.3463 16.764C67.2438 16.3602 67.9584 15.8169 68.4869 15.1371C69.0183 14.4572 69.3165 13.7031 69.3903 12.8748C69.5202 11.3755 69.0537 10.3008 67.9938 9.65058L68.0145 9.41307H70.3972H70.4031ZM65.9624 11.7793L65.9211 12.2513C65.865 12.8837 65.6288 13.3646 65.2066 13.7001C64.7844 14.0356 64.2618 14.2019 63.6329 14.2019C63.004 14.2019 62.5109 14.0356 62.1478 13.7001C61.7846 13.3646 61.6311 12.8837 61.6842 12.2513L61.7255 11.7793C61.7816 11.1499 62.0178 10.66 62.4401 10.3156C62.8623 9.97122 63.3878 9.79902 64.0138 9.79902C64.6397 9.79902 65.1357 9.97122 65.4989 10.3156C65.8621 10.66 66.0156 11.1499 65.9595 11.7793H65.9624Z" fill="#6F00B6"/>
  <path d="M76.2014 19.9852C75.1073 18.8571 73.5137 18.293 71.4206 18.293C70.0292 18.293 68.8221 18.5483 67.7993 19.0619C66.7736 19.5755 65.9738 20.3029 65.397 21.247C64.8202 22.1911 64.4932 23.2926 64.4218 24.5425C64.3505 25.7953 64.5497 26.8879 65.0194 27.8231C65.4892 28.7553 66.2057 29.4797 67.172 29.9933C68.1383 30.5069 69.3156 30.7623 70.7041 30.7623C72.0926 30.7623 73.3026 30.5069 74.3254 29.9933C75.3481 29.4797 76.145 28.7583 76.7158 27.8231C77.2866 26.8879 77.6048 25.7953 77.6791 24.5425C77.7891 22.6305 77.2956 21.1104 76.2014 19.9823V19.9852ZM74.5484 24.0437L74.5246 24.4534C74.483 25.1808 74.1589 25.7805 73.5583 26.2466C72.9548 26.7127 72.0717 26.9473 70.9033 26.9473C69.7348 26.9473 68.8578 26.7127 68.3077 26.2466C67.7577 25.7805 67.505 25.1808 67.5466 24.4534L67.5704 24.0437C67.612 23.3163 67.9331 22.7107 68.5367 22.2327C69.1402 21.7547 70.0322 21.5142 71.2125 21.5142C72.3928 21.5142 73.2551 21.7487 73.7962 22.2149C74.3373 22.681 74.587 23.2896 74.5424 24.0437H74.5484Z" fill="#6F00B6"/>
  <path d="M81.3302 0.777344L79.8835 17.4298H76.119L76.6859 10.8923H74.8937L74.3858 16.7173H70.6509L72.0031 1.16033H75.7381L75.1742 7.63843H76.9693L77.5657 0.777344H81.3302Z" fill="#6F00B6"/>
  <path d="M33.6691 2.34668H48.7624L48.479 5.60057H44.0384L35.476 16.5261H30.752L39.6568 5.60057H33.3886L33.6691 2.34668Z" fill="#6F00B6"/>
  <path d="M39.6089 8.80664L43.7602 15.932H48.7618L44.3182 8.80664H39.6089Z" fill="#6F00B6"/>
  <path fill-rule="evenodd" clip-rule="evenodd" d="M25.9671 15.193C25.8311 16.0231 25.1182 16.701 23.6924 18.0569L15.5351 25.8146C14.2665 27.021 13.6323 27.6242 12.8687 27.7534C12.6212 27.7953 12.3689 27.8003 12.12 27.7683C11.3518 27.6695 10.6938 27.0919 9.37774 25.9368L1.18741 18.7481C0.372664 18.0329 -0.0347082 17.6754 0.00231616 17.3504C0.0137495 17.25 0.0493654 17.1538 0.106144 17.0701C0.290009 16.7988 0.833384 16.7892 1.92014 16.77L12.6208 16.5809C12.8347 16.5771 12.9417 16.5752 13.0095 16.6313C13.0312 16.6493 13.0495 16.6709 13.0637 16.6953C13.1078 16.7714 13.0883 16.8766 13.0492 17.087L12.6733 19.1131C12.5116 19.9847 12.4307 20.4205 12.6784 20.5963C12.926 20.7722 13.3108 20.5523 14.0805 20.1125L21.7103 15.7526C22.4588 15.3249 22.833 15.1111 22.833 14.7891C22.833 14.4671 22.4588 14.2532 21.7103 13.8255L14.0805 9.46561C13.3108 9.02581 12.926 8.80591 12.6784 8.98179C12.4307 9.15767 12.5116 9.59346 12.6733 10.465L13.0488 12.489C13.0879 12.6993 13.1074 12.8045 13.0633 12.8806C13.0492 12.9049 13.0308 12.9266 13.0091 12.9446C12.9414 13.0006 12.8344 12.9988 12.6206 12.9951L1.92121 12.81C0.834109 12.7912 0.290561 12.7818 0.106598 12.5106C0.0497909 12.4268 0.0141466 12.3306 0.00268892 12.2303C-0.0344148 11.9052 0.373036 11.5475 1.18794 10.832L9.37769 3.64187C10.6937 2.48646 11.3518 1.90875 12.12 1.80987C12.3689 1.77782 12.6213 1.78282 12.8688 1.82468C13.6324 1.95388 14.2668 2.55716 15.5355 3.76373L23.6924 11.521C25.1182 12.8769 25.8311 13.5548 25.9671 14.3849C26.011 14.6525 26.011 14.9254 25.9671 15.193Z" fill="#6F00B6"/>
</svg>