<svg width="66" height="24" viewBox="0 0 66 24" fill="none" xmlns="http://www.w3.org/2000/svg">
<path d="M29.9115 14.0815H42.9688L41.9909 24H38.8848L39.6312 16.7322H29.6824L29.9115 14.0815Z" fill="#6F00B6"/>
<path d="M44.3881 0.00146484L43.0583 12.5658H39.8813L41.2112 0.00146484H44.3881Z" fill="#6F00B6"/>
<path d="M54.7816 3.24109H48.1938L48.4159 0.686035H55.0036L54.7816 3.24109Z" fill="#6F00B6"/>
<path d="M56.3222 6.90916L56.5395 4.4248H46.0686L45.8513 6.90916H48.0622L48.0456 7.09917C47.1056 7.61932 46.5835 8.47911 46.4796 9.67854C46.4229 10.3412 46.5576 10.9445 46.8859 11.4884C47.2142 12.0323 47.7102 12.4669 48.3716 12.7899C49.033 13.1129 49.803 13.2744 50.6817 13.2744C51.5603 13.2744 52.3587 13.1129 53.0768 12.7899C53.7948 12.4669 54.3664 12.0323 54.7892 11.4884C55.2144 10.9445 55.453 10.3412 55.512 9.67854C55.616 8.47911 55.2428 7.61932 54.3948 7.09917L54.4113 6.90916H56.3175H56.3222ZM52.7697 8.80212L52.7366 9.17976C52.6918 9.68566 52.5028 10.0704 52.165 10.3388C51.8273 10.6072 51.4092 10.7402 50.9061 10.7402C50.403 10.7402 50.0085 10.6072 49.718 10.3388C49.4274 10.0704 49.3046 9.68566 49.3471 9.17976L49.3802 8.80212C49.4251 8.2986 49.614 7.90671 49.9518 7.6312C50.2896 7.35568 50.71 7.21793 51.2108 7.21793C51.7115 7.21793 52.1083 7.35568 52.3989 7.6312C52.6894 7.90671 52.8122 8.2986 52.7673 8.80212H52.7697Z" fill="#6F00B6"/>
<path d="M60.9609 15.3665C60.0856 14.464 58.8107 14.0127 57.1362 14.0127C56.0231 14.0127 55.0574 14.217 54.2392 14.6278C53.4186 15.0387 52.7788 15.6206 52.3173 16.3759C51.8559 17.1312 51.5943 18.0124 51.5372 19.0123C51.4801 20.0146 51.6394 20.8886 52.0153 21.6368C52.3911 22.3826 52.9643 22.9621 53.7373 23.373C54.5103 23.7839 55.4522 23.9881 56.563 23.9881C57.6737 23.9881 58.6418 23.7839 59.46 23.373C60.2782 22.9621 60.9157 22.3849 61.3723 21.6368C61.829 20.8886 62.0835 20.0146 62.143 19.0123C62.231 17.4827 61.8362 16.2667 60.9609 15.3641V15.3665ZM59.6384 18.6133L59.6194 18.941C59.5861 19.5229 59.3268 20.0027 58.8464 20.3756C58.3635 20.7485 57.6571 20.9361 56.7223 20.9361C55.7876 20.9361 55.0859 20.7485 54.6459 20.3756C54.2059 20.0027 54.0037 19.5229 54.037 18.941L54.056 18.6133C54.0893 18.0314 54.3462 17.5469 54.829 17.1645C55.3119 16.7821 56.0254 16.5897 56.9697 16.5897C57.914 16.5897 58.6037 16.7773 59.0366 17.1502C59.4695 17.5231 59.6693 18.01 59.6336 18.6133H59.6384Z" fill="#6F00B6"/>
<path d="M65.064 0L63.9066 13.322H60.895L61.3485 8.09198H59.9147L59.5085 12.7519H56.5205L57.6023 0.306388H60.5903L60.1391 5.48887H61.5753L62.0524 0H65.064Z" fill="#6F00B6"/>
<path d="M26.9352 1.25586H39.0099L38.7832 3.85897H35.2307L28.3808 12.5994H24.6016L31.7254 3.85897H26.7109L26.9352 1.25586Z" fill="#6F00B6"/>
<path d="M31.687 6.42383L35.008 12.1241H39.0093L35.4545 6.42383H31.687Z" fill="#6F00B6"/>
<path fill-rule="evenodd" clip-rule="evenodd" d="M20.7737 11.5327C20.6648 12.1968 20.0945 12.7391 18.9539 13.8239L12.4281 20.03C11.4132 20.9951 10.9058 21.4777 10.2949 21.5811C10.097 21.6146 9.89511 21.6186 9.69597 21.5929C9.08143 21.5139 8.55502 21.0519 7.50219 20.1278L0.949927 14.3768C0.298131 13.8047 -0.0277665 13.5186 0.00185293 13.2586C0.0109996 13.1783 0.0394924 13.1014 0.0849151 13.0344C0.232007 12.8173 0.666707 12.8097 1.53611 12.7943L10.0966 12.6431C10.2678 12.64 10.3534 12.6385 10.4076 12.6834C10.425 12.6977 10.4396 12.7151 10.4509 12.7346C10.4862 12.7955 10.4706 12.8796 10.4394 13.0479L10.1386 14.6688C10.0093 15.3661 9.94458 15.7147 10.1427 15.8554C10.3408 15.9961 10.6487 15.8202 11.2644 15.4683L17.3683 11.9804C17.967 11.6383 18.2664 11.4672 18.2664 11.2096C18.2664 10.952 17.967 10.7809 17.3683 10.4387L11.2644 6.95081C10.6487 6.59897 10.3408 6.42305 10.1427 6.56375C9.94458 6.70446 10.0093 7.05309 10.1386 7.75035L10.4391 9.36954C10.4703 9.53777 10.4859 9.62189 10.4506 9.68278C10.4393 9.70227 10.4247 9.7196 10.4073 9.73397C10.3531 9.77884 10.2675 9.77736 10.0965 9.7744L1.53696 9.62635C0.667287 9.61131 0.232448 9.60379 0.0852787 9.38677C0.0398327 9.31976 0.0113172 9.24284 0.00215114 9.16254C-0.0275318 8.90249 0.298429 8.61631 0.95035 8.04396L7.50216 2.29181C8.55498 1.36749 9.0814 0.905317 9.69599 0.826214C9.89515 0.80058 10.097 0.804576 10.295 0.838068C10.9059 0.941425 11.4134 1.42405 12.4284 2.3893L18.9539 8.59511C20.0945 9.67983 20.6648 10.2222 20.7737 10.8863C20.8088 11.1003 20.8088 11.3186 20.7737 11.5327Z" fill="#6F00B6"/>
</svg>
