<svg width="28" height="28" viewBox="0 0 28 28" fill="none" xmlns="http://www.w3.org/2000/svg">
<mask id="mask0_1364_25385" style="mask-type:alpha" maskUnits="userSpaceOnUse" x="0" y="0" width="28" height="28">
<rect width="28" height="28" fill="#D9D9D9"/>
</mask>
<g mask="url(#mask0_1364_25385)">
<path d="M8.73687 22.9787V10.8454C8.73687 10.2636 8.94589 9.76973 9.36395 9.36374C9.782 8.95754 10.2819 8.75444 10.8637 8.75444H22.9612C23.5429 8.75444 24.0399 8.96046 24.4522 9.37248C24.8642 9.78471 25.0702 10.2817 25.0702 10.8635V19.591L19.5734 25.0878H10.8459C10.2641 25.0878 9.76713 24.8818 9.35491 24.4697C8.94288 24.0575 8.73687 23.5605 8.73687 22.9787ZM2.9327 7.49794C2.82361 6.91616 2.93698 6.39194 3.27278 5.92528C3.60839 5.45861 4.06718 5.17073 4.64916 5.06165L16.5894 2.95028C17.1712 2.84119 17.6954 2.95455 18.1621 3.29036C18.6287 3.62597 18.9167 4.08476 19.026 4.66673L19.2952 6.19682H17.5093L17.2827 4.91786C17.2677 4.83561 17.2228 4.77018 17.1479 4.72157C17.0733 4.67296 16.991 4.65614 16.9012 4.67111L4.95657 6.79357C4.85177 6.80854 4.77321 6.85715 4.72091 6.9394C4.6686 7.02165 4.64984 7.11518 4.66461 7.21999L6.17924 15.7749V20.9729C5.89049 20.8205 5.64364 20.6115 5.4387 20.3459C5.23395 20.0804 5.10241 19.778 5.04407 19.4385L2.9327 7.49794ZM10.4869 10.8635V22.9787C10.4869 23.0835 10.5205 23.1696 10.5878 23.2369C10.6551 23.3041 10.7411 23.3378 10.8459 23.3378H18.6535V18.6711H23.3202V10.8635C23.3202 10.7587 23.2866 10.6726 23.2193 10.6054C23.152 10.5381 23.066 10.5044 22.9612 10.5044H10.8459C10.7411 10.5044 10.6551 10.5381 10.5878 10.6054C10.5205 10.6726 10.4869 10.7587 10.4869 10.8635Z" fill="#9CA0A6"/>
</g>
</svg>
