<svg width="20" height="20" viewBox="0 0 20 20" fill="none" xmlns="http://www.w3.org/2000/svg">
<mask id="mask0_1288_2236" style="mask-type:alpha" maskUnits="userSpaceOnUse" x="0" y="0" width="20" height="20">
<rect width="20" height="20" fill="#D9D9D9"/>
</mask>
<g mask="url(#mask0_1288_2236)">
<path d="M4.42687 17.0837C4.0059 17.0837 3.64958 16.9378 3.35791 16.6462C3.06624 16.3545 2.92041 15.9982 2.92041 15.5772V4.42345C2.92041 4.00248 3.06624 3.64616 3.35791 3.35449C3.64958 3.06283 4.0059 2.91699 4.42687 2.91699H9.68312V4.16699H4.42687C4.3627 4.16699 4.30395 4.19373 4.25062 4.2472C4.19715 4.30053 4.17041 4.35928 4.17041 4.42345V15.5772C4.17041 15.6414 4.19715 15.7001 4.25062 15.7535C4.30395 15.8069 4.3627 15.8337 4.42687 15.8337H15.5806C15.6448 15.8337 15.7035 15.8069 15.7569 15.7535C15.8103 15.7001 15.8371 15.6414 15.8371 15.5772V10.321H17.0871V15.5772C17.0871 15.9982 16.9412 16.3545 16.6496 16.6462C16.3579 16.9378 16.0016 17.0837 15.5806 17.0837H4.42687ZM8.10312 12.7791L7.22499 11.901L14.959 4.16699H11.6704V2.91699H17.0871V8.33366H15.8371V5.04512L8.10312 12.7791Z" fill="#393F4E"/>
<path d="M4.42687 17.0837C4.0059 17.0837 3.64958 16.9378 3.35791 16.6462C3.06624 16.3545 2.92041 15.9982 2.92041 15.5772V4.42345C2.92041 4.00248 3.06624 3.64616 3.35791 3.35449C3.64958 3.06283 4.0059 2.91699 4.42687 2.91699H9.68312V4.16699H4.42687C4.3627 4.16699 4.30395 4.19373 4.25062 4.2472C4.19715 4.30053 4.17041 4.35928 4.17041 4.42345V15.5772C4.17041 15.6414 4.19715 15.7001 4.25062 15.7535C4.30395 15.8069 4.3627 15.8337 4.42687 15.8337H15.5806C15.6448 15.8337 15.7035 15.8069 15.7569 15.7535C15.8103 15.7001 15.8371 15.6414 15.8371 15.5772V10.321H17.0871V15.5772C17.0871 15.9982 16.9412 16.3545 16.6496 16.6462C16.3579 16.9378 16.0016 17.0837 15.5806 17.0837H4.42687ZM8.10312 12.7791L7.22499 11.901L14.959 4.16699H11.6704V2.91699H17.0871V8.33366H15.8371V5.04512L8.10312 12.7791Z" fill="#4182D8"/>
</g>
</svg>
