<svg width="137" height="44" viewBox="0 0 137 44" fill="none" xmlns="http://www.w3.org/2000/svg">
<path d="M31.1295 14.8768C31.1461 14.8668 31.1627 14.8563 31.1793 14.8462C31.7141 14.5371 32.2434 14.2164 32.8689 14.1034C33.055 14.1026 33.2415 14.1023 33.4277 14.1016C34.1564 14.1829 34.797 14.4698 35.4051 14.8621C36.0336 15.2674 36.7003 15.6125 37.3859 15.9188C37.7884 16.0984 38.2104 16.1816 38.6531 16.075C38.7169 16.0837 38.7792 16.0797 38.8392 16.056C39.2955 15.9991 39.7375 15.89 40.1691 15.7338C40.3862 15.6554 40.6132 15.6118 40.8473 15.65C41.1359 15.6968 41.2999 15.8641 41.3441 16.1506C41.3851 16.4148 41.2723 16.6333 41.0146 16.751C40.6682 16.909 40.2907 16.9687 39.9229 17.0594C39.3114 17.211 38.6959 17.3197 38.0597 17.3027C37.603 17.2905 37.1824 17.1609 36.7822 16.9666C36.2728 16.7189 35.773 16.4522 35.2688 16.1938C35.2459 16.1812 35.223 16.1686 35.1998 16.1557C35.1383 16.0884 35.0612 16.0473 34.9717 16.0279C34.9658 16.0171 34.9569 16.0117 34.9444 16.0117C34.8478 15.9174 34.7317 15.8555 34.6035 15.8127C34.5968 15.8011 34.5869 15.7954 34.5736 15.7954C34.4752 15.7058 34.3602 15.6431 34.2349 15.5974C34.2187 15.5913 34.2021 15.5855 34.1858 15.5794C34.1659 15.5668 34.146 15.5539 34.1261 15.5413L34.1309 15.542C34.0233 15.4344 33.8762 15.4038 33.7388 15.3638C33.3809 15.2591 33.0211 15.2296 32.6695 15.3962L32.5759 15.425C32.4605 15.4488 32.3588 15.4981 32.2755 15.5809C32.2651 15.5877 32.2548 15.5942 32.2445 15.601C32.1656 15.6194 32.0982 15.6546 32.0547 15.7252C32.044 15.7317 32.0337 15.7378 32.023 15.7443C31.9566 15.7471 31.9109 15.7828 31.8741 15.8328C31.8623 15.8386 31.8505 15.8443 31.8387 15.8501C31.6769 15.9185 31.528 16.0074 31.3942 16.1197C31.3496 16.1251 31.3135 16.1449 31.2854 16.1791C31.2486 16.1798 31.2209 16.1953 31.2033 16.2269C31.1904 16.2262 31.1811 16.2316 31.1752 16.2428C31.11 16.2521 31.0562 16.2791 31.0197 16.3349C30.9983 16.3464 30.9769 16.3576 30.9556 16.3691C30.8306 16.4069 30.7167 16.4645 30.6205 16.5519C30.6091 16.5573 30.5973 16.5631 30.5859 16.5685C30.4967 16.5876 30.42 16.6282 30.3566 16.693C30.2763 16.7135 30.204 16.7488 30.1421 16.8035C30.0179 16.8464 29.8959 16.8928 29.7953 16.9795C29.716 16.9896 29.6493 17.0249 29.5907 17.076C29.2324 17.221 28.8819 17.379 28.5837 17.6285C28.5719 17.6278 28.5631 17.6328 28.5575 17.6432C28.5166 17.6436 28.4901 17.6645 28.4754 17.7005C28.4625 17.7012 28.4532 17.7073 28.4481 17.7188C28.2081 17.8721 27.9822 18.0536 28.0541 18.3656C28.1348 18.7151 28.3301 18.9591 28.7415 18.9872C29.1668 19.0164 29.5664 18.9037 29.9497 18.7302C29.9659 18.7248 29.9818 18.7198 29.998 18.7144C30.2752 18.6597 30.5321 18.5448 30.7985 18.4585C31.542 18.2173 32.2795 17.9596 33.0359 17.757C33.2913 17.6886 33.5172 17.7105 33.72 17.884L33.7225 17.8865C33.8114 18.0377 33.8762 18.1982 33.9382 18.3613C34.2124 19.0858 34.7479 19.5922 35.3915 20.0065C36.4615 20.6954 37.551 21.3537 38.6384 22.0156C38.753 22.0854 38.8702 22.1542 38.9723 22.2391C39.318 22.5267 39.7032 22.5548 40.1134 22.4137C40.5543 22.2622 41.0102 22.1643 41.4591 22.0419C41.7352 21.9667 41.984 22.0174 42.1757 22.2413C42.3305 22.4223 42.3308 22.6257 42.2494 22.8341C42.1867 22.9943 42.0644 23.1037 41.9 23.1584C41.7142 23.2203 41.5255 23.2739 41.3357 23.3221C41.0957 23.3833 41.0673 23.4197 41.1285 23.663C41.2291 24.0629 41.2218 24.4613 41.0968 24.8526C40.7684 25.8819 39.8816 26.4395 38.7736 26.3049C38.2296 26.2386 37.7327 26.0281 37.2775 25.7373C36.1438 25.0134 35.0152 24.2817 33.888 23.5475C33.5832 23.3488 33.5198 23.0144 33.7115 22.7304C33.8851 22.4731 34.2548 22.3993 34.5445 22.5832C35.2186 23.0115 35.8843 23.4521 36.5573 23.8822C37.1308 24.2486 37.6745 24.6618 38.2904 24.9616C38.596 25.1103 38.9189 25.2038 39.2683 25.1279C39.7614 25.0206 40.1094 24.4253 39.9516 23.9625C39.9015 23.8152 39.8245 23.7415 39.6523 23.7839C39.4046 23.8455 39.1787 23.7731 38.969 23.6439C38.0247 23.0612 37.08 22.4785 36.1364 21.8943C35.5363 21.5225 34.9223 21.1716 34.3536 20.7544C33.8125 20.3574 33.3676 19.8737 33.0384 19.2924C32.9116 19.0685 32.8685 19.0491 32.6271 19.1286C32.3315 19.2262 32.0285 19.3036 31.7465 19.4378C31.716 19.4465 31.6854 19.4551 31.6548 19.4634C31.3839 19.5274 31.1196 19.6102 30.8678 19.729C30.8476 19.734 30.8273 19.7391 30.8067 19.7441C30.6972 19.7657 30.5888 19.7906 30.4974 19.8582C30.3916 19.8978 30.2862 19.937 30.1804 19.9766C30.1156 19.9698 30.0514 19.9655 29.9998 20.0159C29.974 20.0187 29.9486 20.022 29.9228 20.0249C29.6924 20.0778 29.4587 20.1566 29.2306 20.1728C28.7441 20.207 28.2476 20.2055 27.8119 19.9223C27.7205 19.8629 27.6261 19.8078 27.5332 19.751C27.5074 19.7035 27.4721 19.666 27.4179 19.6487C27.3744 19.5919 27.3331 19.5332 27.287 19.4781C26.9844 19.1175 26.8355 18.7079 26.8318 18.2389C26.8293 17.8891 26.9826 17.604 27.168 17.3261C27.2413 17.216 27.2078 17.1879 27.088 17.212C27.0618 17.2153 27.036 17.2185 27.0099 17.2218C26.5606 17.3107 26.1142 17.4273 25.6479 17.3733C25.6218 17.3679 25.5956 17.3625 25.5694 17.3567C25.5366 17.3416 25.5046 17.3251 25.4714 17.3114C24.9174 17.0879 24.3313 16.9558 23.7711 16.7492C23.7611 16.7427 23.7508 16.7359 23.7409 16.7294C23.7346 16.7193 23.7302 16.7078 23.7221 16.6988C23.4781 16.4285 23.4427 16.1729 23.6148 15.9145C23.7763 15.6716 24.0368 15.6082 24.3811 15.7219C24.8112 15.8638 25.2462 15.9919 25.6719 16.1452C25.8967 16.2266 26.1101 16.2258 26.3372 16.1751C27.4732 15.9213 28.6103 15.6734 29.754 15.4542C30.1904 15.3707 30.6135 15.2591 30.9696 14.9805C30.9814 14.9816 30.9895 14.9765 30.9939 14.9661C31.054 14.9578 31.0949 14.9222 31.1288 14.8765L31.1295 14.8768Z" fill="url(#paint0_linear_1364_8828)"/>
<path d="M23.1381 22.7374C23.1432 22.7482 23.1517 22.7533 23.1635 22.7533C23.1816 22.7878 23.2088 22.809 23.2498 22.8116C23.2542 22.8213 23.2619 22.8256 23.2726 22.8238C23.3327 22.9026 23.4263 22.9375 23.5045 22.9933C23.6766 23.1161 23.8675 23.1812 24.0699 23.0898C24.4558 22.9152 24.8586 22.854 25.2785 22.876C25.3035 22.8785 25.3289 22.8807 25.354 22.8832C25.5368 22.9455 25.72 23.0077 25.9028 23.07C25.9611 23.1078 26.0193 23.1456 26.0772 23.1834C26.1328 23.2489 26.1944 23.3079 26.2751 23.3443C26.2906 23.3601 26.3061 23.3759 26.3215 23.3918C26.3444 23.4594 26.3835 23.5149 26.4506 23.5476C26.4502 23.5599 26.4557 23.5685 26.4671 23.5735C26.5346 23.6869 26.5438 23.8622 26.7506 23.8255C26.8037 23.815 26.8582 23.8086 26.9098 23.7931C27.2954 23.6779 27.6824 23.6801 28.0709 23.7751C28.358 23.8453 28.5865 24.0159 28.8128 24.1897L28.8102 24.1876C28.909 24.3351 29.0177 24.4777 29.1047 24.6317C29.2702 24.9251 29.2651 24.9276 29.5883 24.8293C29.6134 24.8254 29.6384 24.8214 29.6635 24.8178C29.9853 24.7642 30.3045 24.7868 30.6229 24.8444C30.6919 24.9099 30.7884 24.9193 30.8699 24.9592C31.5289 25.2807 31.9576 26.0523 31.8662 26.8211C31.8323 27.1055 31.9425 27.2916 32.164 27.4244C32.7604 27.7821 33.3324 28.1763 33.924 28.5409C34.3353 28.7946 34.5804 28.7611 34.9188 28.4217C35.0091 28.331 35.1005 28.2439 35.2207 28.1903C35.4341 28.0949 35.7264 28.136 35.8756 28.2846C36.0633 28.4714 36.1149 28.7205 36.0131 28.9469C35.7013 29.6408 34.6899 30.0583 33.9 29.8373C33.4887 29.7221 33.1743 29.4497 32.8175 29.2478C32.5101 29.0736 32.2208 28.8688 31.9226 28.6794C31.7361 28.561 31.69 28.5643 31.5614 28.7449C30.972 29.5728 29.7442 29.688 28.9665 29.1481C28.7992 29.0318 28.6676 28.8828 28.5401 28.7288C28.3996 28.5589 28.3042 28.565 28.093 28.6287C27.5932 28.7799 27.0989 28.7381 26.6352 28.4912C26.1339 28.2245 25.8144 27.816 25.6883 27.27C25.6588 27.1418 25.6028 27.0439 25.4576 27.0731C24.8166 27.2016 24.2427 27.0619 23.7256 26.679C23.7016 26.6268 23.6626 26.589 23.6099 26.5642C23.2991 26.1841 23.1462 25.7435 23.0876 25.2666C23.1001 25.1928 23.1045 25.1198 23.0732 25.0489C23.095 24.9657 23.1009 24.8826 23.0765 24.7987C23.102 24.7368 23.1009 24.6738 23.0879 24.6098C23.1436 24.5216 23.1506 24.4212 23.1554 24.3222C23.1595 24.2365 23.1477 24.1537 23.0323 24.1422C23.0091 24.1005 22.9659 24.0875 22.925 24.0717C22.911 24.062 22.8967 24.0522 22.8826 24.0425L22.8779 24.0414C22.7522 23.8877 22.576 23.806 22.4005 23.7233C22.4005 23.7233 22.3961 23.7193 22.3961 23.7197C21.9955 23.4342 21.5793 23.1726 21.1496 22.9307C21.1473 22.9213 21.1415 22.9174 21.1315 22.9192C21.0438 22.8544 20.9535 22.7932 20.8694 22.7245C20.6774 22.5672 20.6029 22.285 20.6885 22.0546C20.7743 21.8236 20.9693 21.7062 21.2483 21.6994C21.4618 21.694 21.6177 21.8131 21.7839 21.9118C22.2391 22.181 22.6703 22.4873 23.1366 22.7389L23.1381 22.7374ZM26.8571 26.2168C26.8711 26.4252 26.8306 26.689 26.8881 26.9504C26.9728 27.3344 27.2515 27.546 27.6352 27.5118C27.9857 27.4809 28.1604 27.2621 28.1689 26.8424C28.173 26.6451 28.1656 26.4472 28.1814 26.2507C28.2035 25.9811 28.2021 25.7126 28.1718 25.4448C28.1368 25.136 27.9348 24.9355 27.6341 24.8927C27.1973 24.8304 26.8788 25.1054 26.8586 25.5708C26.8501 25.7676 26.8571 25.9656 26.8571 26.2168ZM30.7306 27.1494C30.7228 26.9122 30.7472 26.684 30.7059 26.4583C30.6484 26.1434 30.414 25.9555 30.0712 25.9458C29.7424 25.9364 29.5293 26.0995 29.4505 26.4166C29.3351 26.8791 29.3495 27.343 29.4483 27.8045C29.5135 28.11 29.7984 28.3094 30.125 28.3001C30.4482 28.2907 30.6546 28.1007 30.7107 27.7663C30.7457 27.5579 30.7221 27.3484 30.7309 27.1498L30.7306 27.1494ZM25.619 24.9794C25.619 24.8423 25.6349 24.703 25.6157 24.5684C25.5715 24.2585 25.3489 24.0724 25.0271 24.0551C24.6946 24.0371 24.4469 24.2027 24.3629 24.5039C24.2689 24.8412 24.2796 25.1792 24.378 25.5135C24.4572 25.7835 24.7237 25.9624 25.0212 25.9555C25.3002 25.949 25.5014 25.7838 25.5796 25.4959C25.6253 25.3267 25.6301 25.1536 25.6187 24.9798L25.619 24.9794Z" fill="url(#paint1_linear_1364_8828)"/>
<path d="M36.7022 28.0516C36.4549 28.0109 36.1865 27.9724 35.927 27.8403C34.6462 27.1874 33.4258 26.4398 32.232 25.6484C32.1089 25.567 32.0053 25.4673 31.9297 25.3392C31.7967 25.1135 31.8077 24.9076 31.971 24.7064C32.1203 24.5225 32.3602 24.4549 32.602 24.533C32.8272 24.6057 33.0134 24.745 33.2021 24.8785C34.1475 25.5469 35.1423 26.1389 36.1611 26.6932C36.317 26.7782 36.4784 26.8646 36.6624 26.8498C36.8791 26.8325 37.0324 26.7044 37.153 26.5341C37.258 26.3851 37.3903 26.2754 37.586 26.2638C37.9985 26.2401 38.3313 26.6918 38.1529 27.0809C37.8688 27.7007 37.4187 28.0275 36.7025 28.0512L36.7022 28.0516Z" fill="url(#paint2_linear_1364_8828)"/>
<path d="M59.6562 15.2656V29.3906H57.9844V15.2656H59.6562ZM56.7969 15.5156V28.7031H55.1562V24.25H53.3125C52.7891 25.6406 51.8516 26.4297 50.6562 26.4219C48.8125 26.4375 47.6094 24.4844 47.6094 21.375C47.6094 18.2656 48.8125 16.3438 50.6562 16.3438C51.8516 16.3438 52.7812 17.125 53.3125 18.5H55.1562V15.5156H56.7969ZM50.6562 17.9844C49.7344 17.9688 49.1875 19.1719 49.2031 21.375C49.1875 23.5781 49.7344 24.7812 50.6562 24.7656C51.5938 24.7812 52.1719 23.5781 52.1719 21.375C52.1719 19.1719 51.5938 17.9688 50.6562 17.9844ZM53.6562 19.9062C53.7266 20.3594 53.7656 20.8516 53.7656 21.375C53.7656 21.8906 53.7266 22.375 53.6719 22.8281H55.1562V19.9062H53.6562ZM66.2969 17.5156C66.2969 19.2969 67.4531 20.9688 69.625 21.6562L68.6875 23.0156C67.1641 22.5 66.0703 21.4688 65.4688 20.1562C64.8438 21.6562 63.7031 22.8359 62.0781 23.4062L61.1406 22.0469C63.4219 21.25 64.5469 19.375 64.5625 17.3594V16.0156H66.2969V17.5156ZM72.4375 15.2656V18.7031H74.4062V20.1406H72.4375V23.7188H70.7031V15.2656H72.4375ZM67.8438 24.0312C70.7656 24.0156 72.5625 25.0156 72.5781 26.6875C72.5625 28.3906 70.7656 29.375 67.8438 29.375C64.8906 29.375 63.0625 28.3906 63.0625 26.6875C63.0625 25.0156 64.8906 24.0156 67.8438 24.0312ZM67.8438 25.3906C65.9062 25.3906 64.7969 25.8594 64.7969 26.6875C64.7969 27.5625 65.9062 28 67.8438 28C69.7812 28 70.8594 27.5625 70.8594 26.6875C70.8594 25.8594 69.7812 25.3906 67.8438 25.3906ZM82.0156 17.5156V18.9062H75.0938V17.5156H77.7188V15.6719H79.4375V17.5156H82.0156ZM78.5781 19.6562C80.375 19.6562 81.6562 21.0156 81.6562 22.9375C81.6562 24.8906 80.375 26.2656 78.5781 26.2656C76.7969 26.2656 75.4844 24.8906 75.5 22.9375C75.4844 21.0156 76.7969 19.6562 78.5781 19.6562ZM78.5781 21.0938C77.6562 21.0938 77.0156 21.8281 77.0312 22.9375C77.0156 24.0781 77.6562 24.7969 78.5781 24.7812C79.4844 24.7969 80.125 24.0781 80.125 22.9375C80.125 21.8281 79.4844 21.0938 78.5781 21.0938ZM87.2656 15.2656V29.3906H85.6094V22.4844H84.2344V28.75H82.6094V15.5625H84.2344V21.0781H85.6094V15.2656H87.2656ZM101.859 26.2656V27.6875H88.9531V26.2656H94.5156V23.5156H90.375V16.2031H92.1094V18.5156H98.6562V16.2031H100.391V23.5156H96.2344V26.2656H101.859ZM92.1094 22.1094H98.6562V19.9062H92.1094V22.1094ZM114.578 15.2656V29.3906H112.828V15.2656H114.578ZM110.359 16.7656C110.359 20.9688 108.734 24.5469 103.781 26.8906L102.875 25.5C106.57 23.7422 108.289 21.3516 108.594 18.1406H103.594V16.7656H110.359Z" fill="url(#paint3_linear_1364_8828)"/>
<defs>
<linearGradient id="paint0_linear_1364_8828" x1="32.9056" y1="14.1016" x2="32.9056" y2="26.3247" gradientUnits="userSpaceOnUse">
<stop stop-color="#24D59E"/>
<stop offset="1" stop-color="#35C9F0"/>
</linearGradient>
<linearGradient id="paint1_linear_1364_8828" x1="28.3589" y1="21.6992" x2="28.3589" y2="29.8967" gradientUnits="userSpaceOnUse">
<stop stop-color="#24D59E"/>
<stop offset="1" stop-color="#35C9F0"/>
</linearGradient>
<linearGradient id="paint2_linear_1364_8828" x1="35.0203" y1="24.501" x2="35.0203" y2="28.0516" gradientUnits="userSpaceOnUse">
<stop stop-color="#24D59E"/>
<stop offset="1" stop-color="#35C9F0"/>
</linearGradient>
<linearGradient id="paint3_linear_1364_8828" x1="47" y1="22" x2="117" y2="22" gradientUnits="userSpaceOnUse">
<stop stop-color="#15C58E"/>
<stop offset="1" stop-color="#18A8CE"/>
</linearGradient>
</defs>
</svg>
