<svg width="40" height="40" viewBox="0 0 40 40" fill="none" xmlns="http://www.w3.org/2000/svg">
<rect width="40" height="40" rx="20" fill="#F7F1FB"/>
<path d="M27 29V27C27 26.2044 26.6837 25.4415 26.1211 24.8789C25.5585 24.3163 24.7956 24 24 24H16C15.2044 24 14.4415 24.3163 13.8789 24.8789C13.3163 25.4415 13 26.2044 13 27V29C13 29.5523 12.5523 30 12 30C11.4477 30 11 29.5523 11 29V27C11 25.6739 11.5272 24.4025 12.4648 23.4648C13.4025 22.5272 14.6739 22 16 22H24C25.3261 22 26.5975 22.5272 27.5352 23.4648C28.4728 24.4025 29 25.6739 29 27V29C29 29.5523 28.5523 30 28 30C27.4477 30 27 29.5523 27 29Z" fill="#7A52FF"/>
<path d="M23 15C23 13.3431 21.6569 12 20 12C18.3431 12 17 13.3431 17 15C17 16.6569 18.3431 18 20 18C21.6569 18 23 16.6569 23 15ZM25 15C25 17.7614 22.7614 20 20 20C17.2386 20 15 17.7614 15 15C15 12.2386 17.2386 10 20 10C22.7614 10 25 12.2386 25 15Z" fill="#7A52FF"/>
</svg>
