<svg xmlns="http://www.w3.org/2000/svg" width="20" height="20" viewBox="0 0 20 20" fill="none">
  <mask id="mask0_1040_3914" style="mask-type:alpha" maskUnits="userSpaceOnUse" x="0" y="0" width="20" height="20">
    <rect width="20" height="20" fill="#D9D9D9"/>
  </mask>
  <g mask="url(#mask0_1040_3914)">
    <path d="M9.13785 13.1406C9.13785 12.1973 9.24653 11.475 9.46389 10.9739C9.68125 10.4728 10.1351 9.91725 10.8253 9.30725C11.3627 8.82864 11.77 8.39461 12.0472 8.00517C12.3244 7.61573 12.4631 7.1742 12.4631 6.68059C12.4631 6.02573 12.2401 5.48142 11.7941 5.04767C11.348 4.61392 10.7339 4.39705 9.9518 4.39705C9.23819 4.39705 8.68264 4.58823 8.28514 4.97059C7.88778 5.35309 7.58597 5.77996 7.37972 6.25121L5.85889 5.58288C6.18264 4.78482 6.68798 4.11948 7.37493 3.58684C8.06187 3.05434 8.92083 2.78809 9.9518 2.78809C11.2979 2.78809 12.334 3.1676 13.0599 3.92663C13.7859 4.68566 14.1489 5.58656 14.1489 6.62934C14.1489 7.281 14.0076 7.85607 13.7251 8.35454C13.4425 8.85288 13.0138 9.37184 12.4391 9.91142C11.7158 10.5749 11.2678 11.0981 11.0953 11.481C10.9227 11.8641 10.8364 12.4173 10.8364 13.1406H9.13785ZM9.9518 17.9162C9.61097 17.9162 9.31743 17.7931 9.07118 17.5468C8.82493 17.3006 8.7018 17.007 8.7018 16.6662C8.7018 16.3254 8.82493 16.0318 9.07118 15.7856C9.31743 15.5393 9.61097 15.4162 9.9518 15.4162C10.2926 15.4162 10.5862 15.5393 10.8324 15.7856C11.0787 16.0318 11.2018 16.3254 11.2018 16.6662C11.2018 17.007 11.0787 17.3006 10.8324 17.5468C10.5862 17.7931 10.2926 17.9162 9.9518 17.9162Z" fill="#0A0C1A"/>
  </g>
</svg>