<svg xmlns="http://www.w3.org/2000/svg" width="21" height="21" viewBox="0 0 21 21" fill="none">
  <mask id="mask0_1200_2614" style="mask-type:alpha" maskUnits="userSpaceOnUse" x="0" y="0" width="21" height="21">
    <rect x="0.666504" y="0.780273" width="20" height="20" fill="#CCD0D6"/>
  </mask>
  <g mask="url(#mask0_1200_2614)">
    <path d="M10.6987 17.0303C8.95387 17.0303 7.47602 16.4249 6.26519 15.2142C5.05422 14.0035 4.44873 12.526 4.44873 10.7815C4.44873 9.03708 5.05422 7.55909 6.26519 6.34756C7.47602 5.13604 8.95387 4.53027 10.6987 4.53027C11.673 4.53027 12.5951 4.74687 13.4648 5.18007C14.3344 5.6134 15.0576 6.22479 15.6346 7.01423V4.53027H16.8846V9.62631H11.7885V8.37652H15.0802C14.641 7.57194 14.032 6.93812 13.2531 6.47506C12.4744 6.01187 11.6229 5.78027 10.6987 5.78027C9.30984 5.78027 8.12929 6.26638 7.15706 7.23861C6.18484 8.21083 5.69873 9.39138 5.69873 10.7803C5.69873 12.1692 6.18484 13.3497 7.15706 14.3219C8.12929 15.2942 9.30984 15.7803 10.6987 15.7803C11.7682 15.7803 12.7335 15.4747 13.5946 14.8636C14.4557 14.2525 15.0598 13.4469 15.4071 12.4469H16.7244C16.3462 13.8069 15.6012 14.9108 14.4896 15.7586C13.3779 16.6064 12.1143 17.0303 10.6987 17.0303Z" fill="#6F00B6"/>
  </g>
</svg>