<svg width="16" height="16" viewBox="0 0 16 16" fill="none" xmlns="http://www.w3.org/2000/svg">
<path d="M0.666504 2.66675V6.66675H4.6665" stroke="#363636" stroke-width="1.33333" stroke-linecap="round" stroke-linejoin="round"/>
<path d="M15.3335 13.3333V9.33325H11.3335" stroke="#363636" stroke-width="1.33333" stroke-linecap="round" stroke-linejoin="round"/>
<path d="M13.6598 5.99964C13.3217 5.04417 12.7471 4.18991 11.9895 3.51659C11.232 2.84327 10.3162 2.37282 9.32765 2.14915C8.3391 1.92548 7.31 1.95587 6.33638 2.23749C5.36275 2.51911 4.47634 3.04279 3.75984 3.75964L0.666504 6.66631M15.3332 9.33298L12.2398 12.2396C11.5233 12.9565 10.6369 13.4802 9.6633 13.7618C8.68967 14.0434 7.66058 14.0738 6.67203 13.8501C5.68348 13.6265 4.7677 13.156 4.01015 12.4827C3.25259 11.8094 2.67795 10.9551 2.33984 9.99964" stroke="#363636" stroke-width="1.33333" stroke-linecap="round" stroke-linejoin="round"/>
</svg>
