<svg width="24" height="24" viewBox="0 0 24 24" fill="none" xmlns="http://www.w3.org/2000/svg">
<path d="M16.919 14.8341H15.9974L15.6707 14.5191C17.0707 12.8858 17.794 10.6574 17.3974 8.28907C16.849 5.04572 14.1424 2.45572 10.8757 2.05906C5.94069 1.45239 1.78735 5.60572 2.39402 10.5408C2.79069 13.8074 5.38069 16.5141 8.62398 17.0624C10.9924 17.4591 13.2207 16.7358 14.854 15.3358L15.169 15.6624V16.5841L20.1274 21.5424C20.6057 22.0208 21.3874 22.0208 21.8657 21.5424C22.344 21.0641 22.344 20.2824 21.8657 19.8041L16.919 14.8341ZM9.91898 14.8341C7.01402 14.8341 4.66902 12.4891 4.66902 9.58407C4.66902 6.67906 7.01402 4.33406 9.91898 4.33406C12.824 4.33406 15.169 6.67906 15.169 9.58407C15.169 12.4891 12.824 14.8341 9.91898 14.8341Z" fill="#9CA0A6"/>
</svg>
