<svg width="28" height="28" viewBox="0 0 28 28" fill="none" xmlns="http://www.w3.org/2000/svg">
<mask id="mask0_1364_25403" style="mask-type:alpha" maskUnits="userSpaceOnUse" x="0" y="0" width="28" height="28">
<rect width="28" height="28" fill="#D9D9D9"/>
</mask>
<g mask="url(#mask0_1364_25403)">
<path d="M19.147 24C18.3545 24 17.6816 23.7245 17.1284 23.1734C16.5753 22.6224 16.2988 21.9532 16.2988 21.1661C16.2988 21.0608 16.3354 20.805 16.4086 20.3987L8.87879 15.9918C8.62362 16.255 8.32044 16.4611 7.96926 16.6103C7.61809 16.7594 7.24185 16.8339 6.84056 16.8339C6.05156 16.8339 5.38088 16.5573 4.82853 16.0039C4.27618 15.4506 4 14.7826 4 14C4 13.2174 4.27618 12.5494 4.82853 11.9961C5.38088 11.4427 6.05156 11.1661 6.84056 11.1661C7.24185 11.1661 7.61809 11.2406 7.96926 11.3897C8.32044 11.5389 8.62362 11.745 8.87879 12.0082L16.4086 7.61132C16.3666 7.48184 16.3378 7.355 16.3221 7.23079C16.3065 7.10658 16.2988 6.9743 16.2988 6.83395C16.2988 6.04675 16.5761 5.37763 17.1307 4.82658C17.6856 4.27553 18.3592 4 19.1518 4C19.9443 4 20.6171 4.27579 21.1701 4.82737C21.7234 5.37877 22 6.04842 22 6.83632C22 7.62421 21.7229 8.29316 21.1686 8.84316C20.6143 9.39298 19.9412 9.66789 19.1494 9.66789C18.7461 9.66789 18.3711 9.59167 18.0244 9.43921C17.6774 9.28675 17.3764 9.07895 17.1212 8.81579L9.59138 13.2226C9.63338 13.3523 9.66224 13.4791 9.67794 13.6032C9.69347 13.7274 9.70124 13.8596 9.70124 14C9.70124 14.1404 9.69347 14.2726 9.67794 14.3968C9.66224 14.5209 9.63338 14.6477 9.59138 14.7774L17.1212 19.1842C17.3764 18.9211 17.6774 18.7132 18.0244 18.5608C18.3711 18.4083 18.7461 18.3321 19.1494 18.3321C19.9412 18.3321 20.6143 18.6078 21.1686 19.1592C21.7229 19.7108 22 20.3805 22 21.1684C22 21.9563 21.7226 22.6252 21.1678 23.175C20.6131 23.725 19.9395 24 19.147 24ZM19.1494 22.4211C19.5071 22.4211 19.8069 22.3008 20.0489 22.0603C20.2908 21.8197 20.4118 21.5217 20.4118 21.1661C20.4118 20.8104 20.2908 20.5124 20.0489 20.2718C19.8069 20.0311 19.5071 19.9108 19.1494 19.9108C18.7917 19.9108 18.4919 20.0311 18.2499 20.2718C18.0078 20.5124 17.8867 20.8104 17.8867 21.1661C17.8867 21.5217 18.0078 21.8197 18.2499 22.0603C18.4919 22.3008 18.7917 22.4211 19.1494 22.4211ZM6.84056 15.255C7.20109 15.255 7.50329 15.1347 7.74718 14.8942C7.99124 14.6537 8.11327 14.3556 8.11327 14C8.11327 13.6444 7.99124 13.3463 7.74718 13.1058C7.50329 12.8653 7.20109 12.745 6.84056 12.745C6.48568 12.745 6.18824 12.8653 5.94824 13.1058C5.70824 13.3463 5.58824 13.6444 5.58824 14C5.58824 14.3556 5.70824 14.6537 5.94824 14.8942C6.18824 15.1347 6.48568 15.255 6.84056 15.255ZM19.1494 8.08921C19.5071 8.08921 19.8069 7.96886 20.0489 7.72816C20.2908 7.48763 20.4118 7.18956 20.4118 6.83395C20.4118 6.47833 20.2908 6.18026 20.0489 5.93974C19.8069 5.69921 19.5071 5.57895 19.1494 5.57895C18.7917 5.57895 18.4919 5.69921 18.2499 5.93974C18.0078 6.18026 17.8867 6.47833 17.8867 6.83395C17.8867 7.18956 18.0078 7.48763 18.2499 7.72816C18.4919 7.96886 18.7917 8.08921 19.1494 8.08921Z" fill="#9CA0A6"/>
</g>
</svg>
