<svg xmlns="http://www.w3.org/2000/svg" width="52" height="52" viewBox="0 0 52 52" fill="none">
  <mask id="mask0_1516_5169" style="mask-type:alpha" maskUnits="userSpaceOnUse" x="0" y="0" width="52" height="52">
    <rect y="52" width="52" height="52" transform="rotate(-90 0 52)" fill="#D9D9D9"/>
  </mask>
  <g mask="url(#mask0_1516_5169)">
    <path d="M11.0234 34.636C9.74225 34.3004 9.13489 32.8339 9.80371 31.6907L12.25 27.51C12.6149 26.8862 12.6149 26.1143 12.25 25.4905L9.80371 21.3088C9.13541 20.1657 9.74254 18.7001 11.0234 18.3645L15.71 17.1379C16.4091 16.9549 16.9546 16.4084 17.1377 15.7092L18.3652 11.0237C18.7007 9.74232 20.1663 9.13515 21.3096 9.80395L25.4902 12.2502C26.1141 12.6152 26.8869 12.6152 27.5107 12.2502L31.6914 9.80395C32.8347 9.13512 34.3002 9.74237 34.6357 11.0237L35.8633 15.7092C36.0463 16.4083 36.5919 16.9548 37.291 17.1379L41.9775 18.3645C43.2587 18.7001 43.8661 20.1666 43.1973 21.3098L40.751 25.4905C40.386 26.1143 40.3861 26.8862 40.751 27.51L43.1973 31.6916C43.8656 32.8349 43.2578 34.3006 41.9766 34.636L37.291 35.8625C36.5918 36.0456 36.0463 36.5921 35.8633 37.2913L34.6357 41.9768C34.3003 43.2582 32.8347 43.8653 31.6914 43.1965L27.5107 40.7502C26.8869 40.3853 26.1141 40.3853 25.4902 40.7502L21.3096 43.1965C20.1663 43.8654 18.7008 43.2581 18.3652 41.9768L17.1377 37.2913C16.9547 36.5921 16.409 36.0456 15.71 35.8625L11.0234 34.636Z" fill="#7A52FF"/>
    <path d="M20.5 26.5L24.5 30.5L32 24" stroke="white" stroke-width="2.5" stroke-linecap="round" stroke-linejoin="round"/>
  </g>
</svg>