<svg xmlns="http://www.w3.org/2000/svg" width="20" height="21" viewBox="0 0 20 21" fill="none">
  <mask id="mask0_1203_2625" style="mask-type:alpha" maskUnits="userSpaceOnUse" x="0" y="0" width="20" height="21">
    <rect y="0.780029" width="20" height="20" fill="#D9D9D9"/>
  </mask>
  <g mask="url(#mask0_1203_2625)">
    <path d="M3.58849 17.8634C3.16752 17.8634 2.8112 17.7175 2.51953 17.4259C2.22786 17.1342 2.08203 16.7779 2.08203 16.3569V7.70315C2.08203 7.28218 2.22786 6.92586 2.51953 6.6342C2.8112 6.34253 3.16752 6.1967 3.58849 6.1967H7.08203V4.78649C7.08203 4.36552 7.22786 4.0092 7.51953 3.71753C7.8112 3.42586 8.16752 3.28003 8.58849 3.28003H11.4089C11.8299 3.28003 12.1862 3.42586 12.4779 3.71753C12.7695 4.0092 12.9154 4.36552 12.9154 4.78649V6.1967H16.4089C16.8299 6.1967 17.1862 6.34253 17.4779 6.6342C17.7695 6.92586 17.9154 7.28218 17.9154 7.70315V16.3569C17.9154 16.7779 17.7695 17.1342 17.4779 17.4259C17.1862 17.7175 16.8299 17.8634 16.4089 17.8634H3.58849ZM3.58849 16.6134H16.4089C16.4731 16.6134 16.5318 16.5866 16.5852 16.5332C16.6386 16.4798 16.6654 16.4211 16.6654 16.3569V7.70315C16.6654 7.63899 16.6386 7.58024 16.5852 7.5269C16.5318 7.47343 16.4731 7.4467 16.4089 7.4467H3.58849C3.52432 7.4467 3.46557 7.47343 3.41224 7.5269C3.35877 7.58024 3.33203 7.63899 3.33203 7.70315V16.3569C3.33203 16.4211 3.35877 16.4798 3.41224 16.5332C3.46557 16.5866 3.52432 16.6134 3.58849 16.6134ZM8.33203 6.1967H11.6654V4.78649C11.6654 4.72232 11.6386 4.66357 11.5852 4.61024C11.5318 4.55676 11.4731 4.53003 11.4089 4.53003H8.58849C8.52432 4.53003 8.46557 4.55676 8.41224 4.61024C8.35877 4.66357 8.33203 4.72232 8.33203 4.78649V6.1967Z" fill="#393F4E"/>
  </g>
</svg>