<svg width="20" height="20" viewBox="0 0 20 20" fill="none" xmlns="http://www.w3.org/2000/svg">
<path d="M3.75016 9.89284V13.2262C3.75016 13.9178 4.3085 14.4762 5.00016 14.4762C5.69183 14.4762 6.25016 13.9178 6.25016 13.2262V9.89284C6.25016 9.20117 5.69183 8.64284 5.00016 8.64284C4.3085 8.64284 3.75016 9.20117 3.75016 9.89284ZM8.75016 9.89284V13.2262C8.75016 13.9178 9.3085 14.4762 10.0002 14.4762C10.6918 14.4762 11.2502 13.9178 11.2502 13.2262V9.89284C11.2502 9.20117 10.6918 8.64284 10.0002 8.64284C9.3085 8.64284 8.75016 9.20117 8.75016 9.89284ZM3.3335 18.6428H16.6668C17.3585 18.6428 17.9168 18.0845 17.9168 17.3928C17.9168 16.7012 17.3585 16.1428 16.6668 16.1428H3.3335C2.64183 16.1428 2.0835 16.7012 2.0835 17.3928C2.0835 18.0845 2.64183 18.6428 3.3335 18.6428ZM13.7502 9.89284V13.2262C13.7502 13.9178 14.3085 14.4762 15.0002 14.4762C15.6918 14.4762 16.2502 13.9178 16.2502 13.2262V9.89284C16.2502 9.20117 15.6918 8.64284 15.0002 8.64284C14.3085 8.64284 13.7502 9.20117 13.7502 9.89284ZM9.22516 1.55117L2.64183 5.01784C2.30016 5.19284 2.0835 5.55117 2.0835 5.9345C2.0835 6.5095 2.55016 6.97617 3.12516 6.97617H16.8835C17.4502 6.97617 17.9168 6.5095 17.9168 5.9345C17.9168 5.55117 17.7002 5.19284 17.3585 5.01784L10.7752 1.55117C10.2918 1.29284 9.7085 1.29284 9.22516 1.55117Z" fill="#2896BB"/>
</svg>
