<svg width="20" height="20" viewBox="0 0 20 20" fill="none" xmlns="http://www.w3.org/2000/svg">
<path d="M5.2959 15.65L5.50423 17.5L6.85423 16.2167L9.16257 9.88333C8.5959 9.74167 8.0959 9.45833 7.68756 9.06667L5.2959 15.65Z" fill="#05935C"/>
<path d="M12.3042 9.06667C11.8959 9.45833 11.3876 9.74167 10.8292 9.88333L13.1376 16.2167L14.4876 17.5L14.7042 15.65L12.3042 9.06667Z" fill="#05935C"/>
<path d="M12.4459 7.16667C12.6959 5.86667 11.9459 4.71667 10.8292 4.31667V3.33333C10.8292 2.875 10.4542 2.5 9.9959 2.5C9.53757 2.5 9.16257 2.875 9.16257 3.33333V4.31667C8.1959 4.66667 7.4959 5.58333 7.4959 6.66667C7.4959 8.2 8.87923 9.41667 10.4626 9.125C11.4459 8.94167 12.2542 8.15 12.4459 7.16667ZM9.9959 7.5C9.53757 7.5 9.16257 7.125 9.16257 6.66667C9.16257 6.20833 9.53757 5.83333 9.9959 5.83333C10.4542 5.83333 10.8292 6.20833 10.8292 6.66667C10.8292 7.125 10.4542 7.5 9.9959 7.5Z" fill="#05935C"/>
</svg>
