<svg width="20" height="20" viewBox="0 0 20 20" fill="none" xmlns="http://www.w3.org/2000/svg">
<path d="M15.8333 3.33317H12.35C12 2.3665 11.0833 1.6665 10 1.6665C8.91667 1.6665 8 2.3665 7.65 3.33317H4.16667C3.25 3.33317 2.5 4.08317 2.5 4.99984V16.6665C2.5 17.5832 3.25 18.3332 4.16667 18.3332H15.8333C16.75 18.3332 17.5 17.5832 17.5 16.6665V4.99984C17.5 4.08317 16.75 3.33317 15.8333 3.33317ZM10 3.33317C10.4583 3.33317 10.8333 3.70817 10.8333 4.1665C10.8333 4.62484 10.4583 4.99984 10 4.99984C9.54167 4.99984 9.16667 4.62484 9.16667 4.1665C9.16667 3.70817 9.54167 3.33317 10 3.33317ZM10.8333 14.9998H6.66667C6.20833 14.9998 5.83333 14.6248 5.83333 14.1665C5.83333 13.7082 6.20833 13.3332 6.66667 13.3332H10.8333C11.2917 13.3332 11.6667 13.7082 11.6667 14.1665C11.6667 14.6248 11.2917 14.9998 10.8333 14.9998ZM13.3333 11.6665H6.66667C6.20833 11.6665 5.83333 11.2915 5.83333 10.8332C5.83333 10.3748 6.20833 9.99984 6.66667 9.99984H13.3333C13.7917 9.99984 14.1667 10.3748 14.1667 10.8332C14.1667 11.2915 13.7917 11.6665 13.3333 11.6665ZM13.3333 8.33317H6.66667C6.20833 8.33317 5.83333 7.95817 5.83333 7.49984C5.83333 7.0415 6.20833 6.6665 6.66667 6.6665H13.3333C13.7917 6.6665 14.1667 7.0415 14.1667 7.49984C14.1667 7.95817 13.7917 8.33317 13.3333 8.33317Z" fill="#6F00B6"/>
</svg>
