<svg width="20" height="20" viewBox="0 0 20 20" fill="none" xmlns="http://www.w3.org/2000/svg">
<path d="M15.8333 3.33366H12.35C12 2.36699 11.0833 1.66699 10 1.66699C8.91667 1.66699 8 2.36699 7.65 3.33366H4.16667C3.25 3.33366 2.5 4.08366 2.5 5.00033V16.667C2.5 17.5837 3.25 18.3337 4.16667 18.3337H15.8333C16.75 18.3337 17.5 17.5837 17.5 16.667V5.00033C17.5 4.08366 16.75 3.33366 15.8333 3.33366ZM10 3.33366C10.4583 3.33366 10.8333 3.70866 10.8333 4.16699C10.8333 4.62533 10.4583 5.00033 10 5.00033C9.54167 5.00033 9.16667 4.62533 9.16667 4.16699C9.16667 3.70866 9.54167 3.33366 10 3.33366ZM10.8333 15.0003H6.66667C6.20833 15.0003 5.83333 14.6253 5.83333 14.167C5.83333 13.7087 6.20833 13.3337 6.66667 13.3337H10.8333C11.2917 13.3337 11.6667 13.7087 11.6667 14.167C11.6667 14.6253 11.2917 15.0003 10.8333 15.0003ZM13.3333 11.667H6.66667C6.20833 11.667 5.83333 11.292 5.83333 10.8337C5.83333 10.3753 6.20833 10.0003 6.66667 10.0003H13.3333C13.7917 10.0003 14.1667 10.3753 14.1667 10.8337C14.1667 11.292 13.7917 11.667 13.3333 11.667ZM13.3333 8.33366H6.66667C6.20833 8.33366 5.83333 7.95866 5.83333 7.50033C5.83333 7.04199 6.20833 6.66699 6.66667 6.66699H13.3333C13.7917 6.66699 14.1667 7.04199 14.1667 7.50033C14.1667 7.95866 13.7917 8.33366 13.3333 8.33366Z" fill="#05935C"/>
</svg>
