<svg width="20" height="20" viewBox="0 0 20 20" fill="none" xmlns="http://www.w3.org/2000/svg">
<path d="M10.8332 16.2497V6.94134C11.5415 6.69134 12.1082 6.12467 12.3582 5.41634H14.9998L12.6832 10.8247C12.5415 11.1497 12.4915 11.5247 12.5915 11.8663C12.9165 12.9497 14.0582 13.7497 15.4165 13.7497C16.7748 13.7497 17.9248 12.9497 18.2415 11.8663C18.3415 11.5247 18.2915 11.1497 18.1498 10.8247L15.8332 5.41634H16.6665C17.1248 5.41634 17.4998 5.04134 17.4998 4.58301C17.4998 4.12467 17.1248 3.74967 16.6665 3.74967H12.3582C12.0165 2.77467 11.0915 2.08301 9.99984 2.08301C8.90817 2.08301 7.98317 2.77467 7.6415 3.74967H3.33317C2.87484 3.74967 2.49984 4.12467 2.49984 4.58301C2.49984 5.04134 2.87484 5.41634 3.33317 5.41634H4.1665L1.84984 10.8247C1.70817 11.1497 1.65817 11.5247 1.75817 11.8663C2.07484 12.9497 3.22484 13.7497 4.58317 13.7497C5.9415 13.7497 7.0915 12.9497 7.40817 11.8663C7.50817 11.5247 7.45817 11.1497 7.3165 10.8247L4.99984 5.41634H7.6415C7.8915 6.12467 8.45817 6.69134 9.1665 6.94134V16.2497M9.1665 16.2497H2.49984C2.0415 16.2497 1.6665 16.6247 1.6665 17.083C1.6665 17.5413 2.0415 17.9163 2.49984 17.9163H17.4998C17.9582 17.9163 18.3332 17.5413 18.3332 17.083C18.3332 16.6247 17.9582 16.2497 17.4998 16.2497H10.8332M16.9748 11.2497H13.8582L15.4165 7.61634L16.9748 11.2497ZM6.1415 11.2497H3.02484L4.58317 7.61634L6.1415 11.2497ZM9.99984 5.41634C9.5415 5.41634 9.1665 5.04134 9.1665 4.58301C9.1665 4.12467 9.5415 3.74967 9.99984 3.74967C10.4582 3.74967 10.8332 4.12467 10.8332 4.58301C10.8332 5.04134 10.4582 5.41634 9.99984 5.41634Z" fill="#2896BB"/>
</svg>
