<svg width="20" height="20" viewBox="0 0 20 20" fill="none" xmlns="http://www.w3.org/2000/svg">
<path d="M16.6667 14.9997C17.5833 14.9997 18.325 14.2497 18.325 13.333L18.3333 4.99967C18.3333 4.08301 17.5833 3.33301 16.6667 3.33301H3.33333C2.41667 3.33301 1.66667 4.08301 1.66667 4.99967V13.333C1.66667 14.2497 2.41667 14.9997 3.33333 14.9997H0.833333C0.375 14.9997 0 15.3747 0 15.833C0 16.2913 0.375 16.6663 0.833333 16.6663H19.1667C19.625 16.6663 20 16.2913 20 15.833C20 15.3747 19.625 14.9997 19.1667 14.9997H16.6667ZM4.16667 4.99967H15.8333C16.2917 4.99967 16.6667 5.37467 16.6667 5.83301V12.4997C16.6667 12.958 16.2917 13.333 15.8333 13.333H4.16667C3.70833 13.333 3.33333 12.958 3.33333 12.4997V5.83301C3.33333 5.37467 3.70833 4.99967 4.16667 4.99967Z" fill="#6F00B6"/>
</svg>
