<svg width="20" height="20" viewBox="0 0 20 20" fill="none" xmlns="http://www.w3.org/2000/svg">
<path d="M13.5324 9.59074L14.8407 8.28241L11.7157 5.15741L10.4074 6.46574L6.95736 3.02408C6.30736 2.37408 5.24902 2.37408 4.59902 3.02408L3.01569 4.60741C2.36569 5.25741 2.36569 6.31574 3.01569 6.96574L6.45736 10.4074L2.62402 14.2491C2.54069 14.3324 2.49902 14.4324 2.49902 14.5491V17.0824C2.49902 17.3157 2.68236 17.4991 2.91569 17.4991H5.44902C5.55736 17.4991 5.66569 17.4574 5.74069 17.3741L9.59069 13.5241L13.0324 16.9657C14.1324 18.0657 15.3324 17.0241 15.3907 16.9657L16.974 15.3824C17.624 14.7324 17.624 13.6741 16.974 13.0241L13.5324 9.59074ZM7.64902 9.22408L4.19902 5.78241L5.77402 4.19908L6.83236 5.25741L6.44069 5.66574C6.11569 5.99074 6.11569 6.51574 6.44069 6.84074C6.76569 7.16574 7.29069 7.16574 7.61569 6.84074L8.01569 6.44074L9.22402 7.64908L7.64902 9.22408ZM14.2157 15.7991L10.774 12.3574L12.3574 10.7741L13.5657 11.9824L13.1657 12.3824C12.8407 12.7074 12.8407 13.2324 13.1657 13.5574C13.4907 13.8824 14.0157 13.8824 14.3407 13.5574L14.7407 13.1574L15.799 14.2157L14.2157 15.7991Z" fill="#6F00B6"/>
<path d="M17.2574 5.86574C17.5824 5.54074 17.5824 5.01574 17.2574 4.69074L15.3074 2.74074C14.9157 2.34908 14.374 2.49908 14.1324 2.74074L12.6074 4.26574L15.7324 7.39074L17.2574 5.86574Z" fill="#6F00B6"/>
</svg>
