<svg width="20" height="20" viewBox="0 0 20 20" fill="none" xmlns="http://www.w3.org/2000/svg">
<path d="M13.7336 8.67704C13.4086 9.00204 12.8669 9.00204 12.5419 8.67704L8.81689 4.96038L2.94189 10.827L2.39189 10.302C1.41689 9.32704 1.41689 7.74371 2.39189 6.76871L5.92523 3.23538C6.90023 2.26038 8.48356 2.26038 9.45856 3.23538L13.7336 7.50204C14.0586 7.82704 14.0586 8.35204 13.7336 8.67704ZM14.3169 6.91038C14.9669 7.56038 14.9669 8.61871 14.3169 9.26871C13.2586 10.327 12.1419 9.45204 11.9586 9.26871L8.82523 6.13538L4.18356 10.777C3.85856 11.102 3.85856 11.627 4.18356 11.952C4.50856 12.277 5.03356 12.277 5.36689 11.952L9.21689 8.10204L9.80856 8.69371L5.95856 12.5437C5.63356 12.8687 5.63356 13.3937 5.95856 13.7187C6.28356 14.0437 6.80856 14.0437 7.14189 13.7187L10.9919 9.86871L11.5836 10.4604L7.73356 14.3104C7.40856 14.6354 7.40856 15.1604 7.73356 15.4854C8.05856 15.8104 8.58356 15.8104 8.90856 15.4854L12.7586 11.6354L13.3502 12.227L9.50023 16.077C9.17523 16.402 9.17523 16.927 9.50023 17.252C9.82523 17.577 10.3502 17.577 10.6752 17.252L17.6086 10.302C18.5836 9.32704 18.5836 7.74371 17.6086 6.76871L14.0752 3.23538C13.1169 2.27704 11.5669 2.26038 10.5919 3.18538L14.3169 6.91038Z" fill="#EF5108"/>
</svg>
