<svg width="20" height="20" viewBox="0 0 20 20" fill="none" xmlns="http://www.w3.org/2000/svg">
<path d="M11.6667 7.5H8.33333C7.875 7.5 7.5 7.875 7.5 8.33333V11.6667C7.5 12.125 7.875 12.5 8.33333 12.5H11.6667C12.125 12.5 12.5 12.125 12.5 11.6667V8.33333C12.5 7.875 12.125 7.5 11.6667 7.5ZM10.8333 10.8333H9.16667V9.16667H10.8333V10.8333ZM17.5 8.33333C17.5 7.875 17.125 7.5 16.6667 7.5H15.8333V5.83333C15.8333 4.91667 15.0833 4.16667 14.1667 4.16667H12.5V3.33333C12.5 2.875 12.125 2.5 11.6667 2.5C11.2083 2.5 10.8333 2.875 10.8333 3.33333V4.16667H9.16667V3.33333C9.16667 2.875 8.79167 2.5 8.33333 2.5C7.875 2.5 7.5 2.875 7.5 3.33333V4.16667H5.83333C4.91667 4.16667 4.16667 4.91667 4.16667 5.83333V7.5H3.33333C2.875 7.5 2.5 7.875 2.5 8.33333C2.5 8.79167 2.875 9.16667 3.33333 9.16667H4.16667V10.8333H3.33333C2.875 10.8333 2.5 11.2083 2.5 11.6667C2.5 12.125 2.875 12.5 3.33333 12.5H4.16667V14.1667C4.16667 15.0833 4.91667 15.8333 5.83333 15.8333H7.5V16.6667C7.5 17.125 7.875 17.5 8.33333 17.5C8.79167 17.5 9.16667 17.125 9.16667 16.6667V15.8333H10.8333V16.6667C10.8333 17.125 11.2083 17.5 11.6667 17.5C12.125 17.5 12.5 17.125 12.5 16.6667V15.8333H14.1667C15.0833 15.8333 15.8333 15.0833 15.8333 14.1667V12.5H16.6667C17.125 12.5 17.5 12.125 17.5 11.6667C17.5 11.2083 17.125 10.8333 16.6667 10.8333H15.8333V9.16667H16.6667C17.125 9.16667 17.5 8.79167 17.5 8.33333ZM13.3333 14.1667H6.66667C6.20833 14.1667 5.83333 13.7917 5.83333 13.3333V6.66667C5.83333 6.20833 6.20833 5.83333 6.66667 5.83333H13.3333C13.7917 5.83333 14.1667 6.20833 14.1667 6.66667V13.3333C14.1667 13.7917 13.7917 14.1667 13.3333 14.1667Z" fill="#6F00B6"/>
</svg>
