<svg width="20" height="20" viewBox="0 0 20 20" fill="none" xmlns="http://www.w3.org/2000/svg">
<path d="M17.5002 2.5H2.50016C1.5835 2.5 0.833496 3.25 0.833496 4.16667V14.1667C0.833496 15.0833 1.5835 15.8333 2.50016 15.8333H6.66683V16.6667C6.66683 17.125 7.04183 17.5 7.50016 17.5H12.5002C12.9585 17.5 13.3335 17.125 13.3335 16.6667V15.8333H17.5002C18.4168 15.8333 19.1585 15.0833 19.1585 14.1667L19.1668 4.16667C19.1668 3.24167 18.4168 2.5 17.5002 2.5ZM16.6668 14.1667H3.3335C2.87516 14.1667 2.50016 13.7917 2.50016 13.3333V5C2.50016 4.54167 2.87516 4.16667 3.3335 4.16667H16.6668C17.1252 4.16667 17.5002 4.54167 17.5002 5V13.3333C17.5002 13.7917 17.1252 14.1667 16.6668 14.1667ZM12.0668 9.89167L8.75016 11.7917C8.19183 12.1083 7.50016 11.7 7.50016 11.0667V7.26667C7.50016 6.625 8.19183 6.225 8.75016 6.54167L12.0668 8.44167C12.6252 8.76667 12.6252 9.56667 12.0668 9.89167Z" fill="#EF5108"/>
</svg>
