<svg width="20" height="20" viewBox="0 0 20 20" fill="none" xmlns="http://www.w3.org/2000/svg">
<path d="M13.3335 9.16699C14.7168 9.16699 15.8252 8.05033 15.8252 6.66699C15.8252 5.28366 14.7168 4.16699 13.3335 4.16699C11.9502 4.16699 10.8335 5.28366 10.8335 6.66699C10.8335 8.05033 11.9502 9.16699 13.3335 9.16699ZM6.66683 9.16699C8.05016 9.16699 9.15849 8.05033 9.15849 6.66699C9.15849 5.28366 8.05016 4.16699 6.66683 4.16699C5.2835 4.16699 4.16683 5.28366 4.16683 6.66699C4.16683 8.05033 5.2835 9.16699 6.66683 9.16699ZM6.66683 10.8337C4.72516 10.8337 0.833496 11.8087 0.833496 13.7503V15.0003C0.833496 15.4587 1.2085 15.8337 1.66683 15.8337H11.6668C12.1252 15.8337 12.5002 15.4587 12.5002 15.0003V13.7503C12.5002 11.8087 8.6085 10.8337 6.66683 10.8337ZM13.3335 10.8337C13.0918 10.8337 12.8168 10.8503 12.5252 10.8753C12.5418 10.8837 12.5502 10.9003 12.5585 10.9087C13.5085 11.6003 14.1668 12.5253 14.1668 13.7503V15.0003C14.1668 15.292 14.1085 15.5753 14.0168 15.8337H18.3335C18.7918 15.8337 19.1668 15.4587 19.1668 15.0003V13.7503C19.1668 11.8087 15.2752 10.8337 13.3335 10.8337Z" fill="#2896BB"/>
</svg>
