<svg width="20" height="20" viewBox="0 0 20 20" fill="none" xmlns="http://www.w3.org/2000/svg">
<path d="M14.1665 1.66699H5.83317C4.9165 1.66699 4.1665 2.41699 4.1665 3.33366V5.00033C4.1665 5.91699 4.9165 6.66699 5.83317 6.66699H14.1665C15.0832 6.66699 15.8332 5.91699 15.8332 5.00033V3.33366C15.8332 2.41699 15.0832 1.66699 14.1665 1.66699ZM13.7498 5.00033H6.24984C6.0165 5.00033 5.83317 4.81699 5.83317 4.58366V3.75033C5.83317 3.51699 6.0165 3.33366 6.24984 3.33366H13.7498C13.9832 3.33366 14.1665 3.51699 14.1665 3.75033V4.58366C14.1665 4.81699 13.9832 5.00033 13.7498 5.00033ZM16.6665 18.3337H3.33317C2.4165 18.3337 1.6665 17.5837 1.6665 16.667V15.8337H18.3332V16.667C18.3332 17.5837 17.5832 18.3337 16.6665 18.3337ZM15.4415 8.49199C15.1748 7.89199 14.5748 7.50033 13.9165 7.50033H6.08317C5.42484 7.50033 4.82484 7.89199 4.55817 8.49199L1.6665 15.0003H18.3332L15.4415 8.49199ZM7.9165 13.3337H7.08317C6.84984 13.3337 6.6665 13.1503 6.6665 12.917C6.6665 12.6837 6.84984 12.5003 7.08317 12.5003H7.9165C8.14984 12.5003 8.33317 12.6837 8.33317 12.917C8.33317 13.1503 8.14984 13.3337 7.9165 13.3337ZM7.9165 11.667H7.08317C6.84984 11.667 6.6665 11.4837 6.6665 11.2503C6.6665 11.017 6.84984 10.8337 7.08317 10.8337H7.9165C8.14984 10.8337 8.33317 11.017 8.33317 11.2503C8.33317 11.4837 8.14984 11.667 7.9165 11.667ZM7.9165 10.0003H7.08317C6.84984 10.0003 6.6665 9.81699 6.6665 9.58366C6.6665 9.35033 6.84984 9.16699 7.08317 9.16699H7.9165C8.14984 9.16699 8.33317 9.35033 8.33317 9.58366C8.33317 9.81699 8.14984 10.0003 7.9165 10.0003ZM10.4165 13.3337H9.58317C9.34984 13.3337 9.1665 13.1503 9.1665 12.917C9.1665 12.6837 9.34984 12.5003 9.58317 12.5003H10.4165C10.6498 12.5003 10.8332 12.6837 10.8332 12.917C10.8332 13.1503 10.6498 13.3337 10.4165 13.3337ZM10.4165 11.667H9.58317C9.34984 11.667 9.1665 11.4837 9.1665 11.2503C9.1665 11.017 9.34984 10.8337 9.58317 10.8337H10.4165C10.6498 10.8337 10.8332 11.017 10.8332 11.2503C10.8332 11.4837 10.6498 11.667 10.4165 11.667ZM10.4165 10.0003H9.58317C9.34984 10.0003 9.1665 9.81699 9.1665 9.58366C9.1665 9.35033 9.34984 9.16699 9.58317 9.16699H10.4165C10.6498 9.16699 10.8332 9.35033 10.8332 9.58366C10.8332 9.81699 10.6498 10.0003 10.4165 10.0003ZM12.9165 13.3337H12.0832C11.8498 13.3337 11.6665 13.1503 11.6665 12.917C11.6665 12.6837 11.8498 12.5003 12.0832 12.5003H12.9165C13.1498 12.5003 13.3332 12.6837 13.3332 12.917C13.3332 13.1503 13.1498 13.3337 12.9165 13.3337ZM12.9165 11.667H12.0832C11.8498 11.667 11.6665 11.4837 11.6665 11.2503C11.6665 11.017 11.8498 10.8337 12.0832 10.8337H12.9165C13.1498 10.8337 13.3332 11.017 13.3332 11.2503C13.3332 11.4837 13.1498 11.667 12.9165 11.667ZM12.9165 10.0003H12.0832C11.8498 10.0003 11.6665 9.81699 11.6665 9.58366C11.6665 9.35033 11.8498 9.16699 12.0832 9.16699H12.9165C13.1498 9.16699 13.3332 9.35033 13.3332 9.58366C13.3332 9.81699 13.1498 10.0003 12.9165 10.0003Z" fill="#EF5108"/>
</svg>
