<svg width="20" height="20" viewBox="0 0 20 20" fill="none" xmlns="http://www.w3.org/2000/svg">
<path d="M16.5699 14.9665C16.9699 14.3249 17.195 13.5749 17.1449 12.7499C17.0366 10.9582 15.6116 9.44154 13.8366 9.24987C11.57 8.99987 9.65328 10.7582 9.65328 12.9749C9.65328 15.0499 11.3283 16.7249 13.3949 16.7249C14.1283 16.7249 14.8116 16.5082 15.3866 16.1415L17.395 18.1499C17.7199 18.4749 18.2533 18.4749 18.5783 18.1499C18.9033 17.8249 18.9033 17.2915 18.5783 16.9665L16.5699 14.9665ZM13.4033 15.0582C12.2533 15.0582 11.3199 14.1249 11.3199 12.9749C11.3199 11.8249 12.2533 10.8915 13.4033 10.8915C14.5533 10.8915 15.4866 11.8249 15.4866 12.9749C15.4866 14.1249 14.5533 15.0582 13.4033 15.0582ZM13.1033 7.97487C12.4866 7.99154 11.8949 8.12487 11.3533 8.34987L10.8949 7.65821L8.32828 11.8332C8.02828 12.3165 7.35328 12.3665 6.98662 11.9415L5.21995 9.88321L2.66995 13.9665C2.41162 14.3749 1.86162 14.4832 1.46995 14.1999C1.11995 13.9415 1.01995 13.4582 1.25328 13.0832L4.40328 8.04154C4.70328 7.56654 5.37828 7.51654 5.74495 7.94154L7.50328 9.99154L10.1533 5.68321C10.4699 5.16654 11.2199 5.14987 11.5533 5.65821L13.1033 7.97487ZM15.2616 8.39154C14.7283 8.15821 14.1533 8.01654 13.5533 7.98321L17.3366 1.99154C17.5949 1.58321 18.1449 1.48321 18.5283 1.76654C18.8866 2.02487 18.9783 2.51654 18.7449 2.88321L15.2616 8.39154Z" fill="#2896BB"/>
</svg>
