<svg width="20" height="20" viewBox="0 0 20 20" fill="none" xmlns="http://www.w3.org/2000/svg">
<path d="M6.49968 11.11L8.85801 8.75171L3.69968 3.60171C3.29968 3.20171 2.60801 3.31004 2.35801 3.82671C1.76634 5.06837 1.98301 6.59337 3.00801 7.62671L6.49968 11.11ZM12.1497 9.60171C13.4247 10.1934 15.2163 9.7767 16.5413 8.4517C18.133 6.86004 18.4413 4.57671 17.2163 3.35171C15.9997 2.13504 13.7163 2.43504 12.1163 4.02671C10.7913 5.35171 10.3747 7.14337 10.9663 8.41837L3.41634 15.9684C3.09134 16.2934 3.09134 16.8184 3.41634 17.1434C3.74134 17.4684 4.26634 17.4684 4.59134 17.1434L9.74968 12.0017L14.8997 17.1517C15.2247 17.4767 15.7497 17.4767 16.0747 17.1517C16.3997 16.8267 16.3997 16.3017 16.0747 15.9767L10.9247 10.8267L12.1497 9.60171Z" fill="#EF5108"/>
</svg>
