<svg width="20" height="20" viewBox="0 0 20 20" fill="none" xmlns="http://www.w3.org/2000/svg">
<path d="M3.71149 10.9805V13.3221C3.71149 13.9305 4.04482 14.4971 4.57816 14.7888L8.74482 17.0638C9.24482 17.3388 9.84482 17.3388 10.3448 17.0638L14.5115 14.7888C15.0448 14.4971 15.3782 13.9305 15.3782 13.3221V10.9805L10.3448 13.7305C9.84482 14.0055 9.24482 14.0055 8.74482 13.7305L3.71149 10.9805ZM8.74482 2.93047L1.71982 6.7638C1.14482 7.08047 1.14482 7.9138 1.71982 8.23047L8.74482 12.0638C9.24482 12.3388 9.84482 12.3388 10.3448 12.0638L17.0448 8.40547V13.3305C17.0448 13.7888 17.4198 14.1638 17.8782 14.1638C18.3365 14.1638 18.7115 13.7888 18.7115 13.3305V7.9888C18.7115 7.68047 18.5448 7.40547 18.2782 7.25547L10.3448 2.93047C9.84482 2.6638 9.24482 2.6638 8.74482 2.93047Z" fill="#EF5108"/>
</svg>
