<svg width="20" height="20" viewBox="0 0 20 20" fill="none" xmlns="http://www.w3.org/2000/svg">
<path d="M17.9832 13.4087L17.0748 7.02533C16.8415 5.38366 15.4332 4.16699 13.7748 4.16699H6.22485C4.56652 4.16699 3.15818 5.38366 2.92485 7.02533L2.01652 13.4087C1.83318 14.692 2.82485 15.8337 4.11652 15.8337C4.68318 15.8337 5.21652 15.6087 5.61652 15.2087L7.49985 13.3337H12.4998L14.3748 15.2087C14.7748 15.6087 15.3165 15.8337 15.8748 15.8337C17.1748 15.8337 18.1665 14.692 17.9832 13.4087ZM9.16652 9.16699H7.49985V10.8337H6.66652V9.16699H4.99985V8.33366H6.66652V6.66699H7.49985V8.33366H9.16652V9.16699ZM12.4998 8.33366C12.0415 8.33366 11.6665 7.95866 11.6665 7.50033C11.6665 7.04199 12.0415 6.66699 12.4998 6.66699C12.9582 6.66699 13.3332 7.04199 13.3332 7.50033C13.3332 7.95866 12.9582 8.33366 12.4998 8.33366ZM14.1665 10.8337C13.7082 10.8337 13.3332 10.4587 13.3332 10.0003C13.3332 9.54199 13.7082 9.16699 14.1665 9.16699C14.6248 9.16699 14.9998 9.54199 14.9998 10.0003C14.9998 10.4587 14.6248 10.8337 14.1665 10.8337Z" fill="#6F00B6"/>
</svg>
