<svg width="20" height="20" viewBox="0 0 20 20" fill="none" xmlns="http://www.w3.org/2000/svg">
<path d="M18.2485 6.575L17.3735 3.76667C17.1901 3.01667 16.5401 2.5 15.7818 2.5H4.20679C3.45679 2.5 2.79846 3.025 2.62346 3.76667L1.74846 6.575C1.36512 8.21667 2.45679 9.16667 2.49846 9.21667V15.8333C2.49846 16.75 3.24846 17.5 4.16512 17.5H15.8318C16.7485 17.5 17.4985 16.75 17.4985 15.8333V9.21667C18.4318 8.28333 18.4068 7.20833 18.2485 6.575ZM10.8318 4.16667H12.4651L12.9151 7.1C12.9901 7.69167 12.5901 8.33333 11.8485 8.33333C11.2901 8.33333 10.8318 7.84167 10.8318 7.24167V4.16667ZM5.36512 7.38333C5.29846 7.925 4.86512 8.33333 4.35679 8.33333C3.58179 8.33333 3.23179 7.525 3.36512 6.96667L4.20679 4.16667H5.84845L5.36512 7.38333ZM9.16512 7.24167C9.16512 7.84167 8.70679 8.33333 8.09012 8.33333C7.46512 8.33333 7.00679 7.75 7.07345 7.1L7.53179 4.16667H9.16512V7.24167ZM15.6401 8.33333C15.1318 8.33333 14.6901 7.925 14.6318 7.38333L14.1485 4.16667L15.7568 4.15833L16.6318 6.96667C16.7651 7.525 16.4235 8.33333 15.6401 8.33333Z" fill="#0058B6"/>
</svg>
