<svg width="20" height="20" viewBox="0 0 20 20" fill="none" xmlns="http://www.w3.org/2000/svg">
<path d="M6.25016 18.5413C6.7085 18.5413 7.0835 18.1663 7.0835 17.708V13.958H7.91683C8.8335 13.958 9.5835 13.208 9.5835 12.2913V6.04134C10.0418 6.04134 10.4168 5.66634 10.4168 5.20801C10.4168 4.74967 10.0418 4.37467 9.5835 4.37467H7.0835V3.12467H7.50016C7.9585 3.12467 8.3335 2.74967 8.3335 2.29134C8.3335 1.83301 7.9585 1.45801 7.50016 1.45801H5.00016C4.54183 1.45801 4.16683 1.83301 4.16683 2.29134C4.16683 2.74967 4.54183 3.12467 5.00016 3.12467H5.41683V4.37467H2.91683C2.4585 4.37467 2.0835 4.74967 2.0835 5.20801C2.0835 5.66634 2.4585 6.04134 2.91683 6.04134V12.2913C2.91683 13.208 3.66683 13.958 4.5835 13.958H5.41683V17.708C5.41683 18.1663 5.79183 18.5413 6.25016 18.5413ZM7.91683 7.29134H6.4585C6.11683 7.29134 5.8335 7.57467 5.8335 7.91634C5.8335 8.25801 6.11683 8.54134 6.4585 8.54134H7.91683V9.79134H6.4585C6.11683 9.79134 5.8335 10.0747 5.8335 10.4163C5.8335 10.758 6.11683 11.0413 6.4585 11.0413H7.91683V12.2913H4.5835V6.04134H7.91683V7.29134ZM16.6668 8.54134V8.12467C17.1252 8.12467 17.5002 7.74967 17.5002 7.29134C17.5002 6.83301 17.1252 6.45801 16.6668 6.45801H12.5002C12.0418 6.45801 11.6668 6.83301 11.6668 7.29134C11.6668 7.74967 12.0418 8.12467 12.5002 8.12467V8.54134C12.5002 8.95801 11.2502 9.50801 11.2502 11.0413V16.458C11.2502 17.3747 12.0002 18.1247 12.9168 18.1247H16.2502C17.1668 18.1247 17.9168 17.3747 17.9168 16.458V11.0413C17.9168 9.50801 16.6668 8.95801 16.6668 8.54134ZM14.1668 8.54134V8.12467H15.0002V8.54134C15.0002 9.87467 16.2502 10.208 16.2502 11.0413V11.458H12.9168C12.9168 11.283 12.9168 11.133 12.9168 11.0413C12.9168 10.208 14.1668 9.87467 14.1668 8.54134ZM12.9168 16.458C12.9168 16.458 12.9168 15.933 12.9168 15.208H16.2502V16.458H12.9168Z" fill="#EF5108"/>
</svg>
