<svg width="20" height="20" viewBox="0 0 20 20" fill="none" xmlns="http://www.w3.org/2000/svg">
<path d="M2.91667 9.16699C2 9.16699 1.25 9.91699 1.25 10.8337V16.667C1.25 17.5837 2 18.3337 2.91667 18.3337C3.83333 18.3337 4.58333 17.5837 4.58333 16.667V10.8337C4.58333 9.91699 3.83333 9.16699 2.91667 9.16699Z" fill="#EF5108"/>
<path d="M8.75 4.41699C8.75 2.87533 9.95833 1.66699 11.5 1.66699C12.3667 1.66699 13.2083 2.07533 13.75 2.70866C14.2917 2.07533 15.1333 1.66699 16 1.66699C17.5417 1.66699 18.75 2.87533 18.75 4.41699C18.75 6.16699 16.6667 8.17533 14.3083 10.3253C13.9917 10.617 13.5 10.617 13.1833 10.3253C10.8333 8.17533 8.75 6.16699 8.75 4.41699Z" fill="#EF5108"/>
<path d="M17.075 14.167H11.3833C11.2917 14.167 11.2 14.1503 11.1083 14.117L9.88333 13.692C9.66667 13.617 9.55833 13.3837 9.63333 13.167C9.70833 12.9503 9.95 12.8337 10.1667 12.917L11.1 13.2753C11.1917 13.3087 11.3 13.3337 11.4 13.3337H13.5917C14.1333 13.3337 14.575 12.892 14.575 12.3503C14.575 11.942 14.3167 11.5753 13.9333 11.4253L8.16667 9.27533C7.98333 9.20033 7.78333 9.16699 7.58333 9.16699H6.25V16.6837L11.5583 18.192C11.9 18.292 12.2667 18.2753 12.6 18.1503L18.75 15.8337C18.75 14.9087 18 14.167 17.075 14.167Z" fill="#EF5108"/>
</svg>
