<svg width="20" height="20" viewBox="0 0 20 20" fill="none" xmlns="http://www.w3.org/2000/svg">
<path d="M18.3332 15.7719V6.89694C18.3332 6.21361 17.9165 5.60527 17.2832 5.34694L10.6165 2.68027C10.2165 2.52194 9.77484 2.52194 9.37484 2.68027L2.70817 5.34694C2.08317 5.60527 1.6665 6.22194 1.6665 6.89694V15.7719C1.6665 16.6886 2.4165 17.4386 3.33317 17.4386H5.83317V9.93861H14.1665V17.4386H16.6665C17.5832 17.4386 18.3332 16.6886 18.3332 15.7719ZM9.1665 15.7719H7.49984V17.4386H9.1665V15.7719ZM10.8332 13.2719H9.1665V14.9386H10.8332V13.2719ZM12.4998 15.7719H10.8332V17.4386H12.4998V15.7719Z" fill="#0058B6"/>
</svg>
